<svg xmlns="http://www.w3.org/2000/svg" width="100%" height="100%" viewBox="0 0 410 65" fill-rule="nonzero" stroke-linejoin="round" stroke-miterlimit="2" fill="#fff"><path d="M1.417 0A1.41 1.41 0 0 0 .001 1.416v61.796c0 .785.63 1.418 1.416 1.418h61.796c.785 0 1.416-.633 1.416-1.418V1.416A1.41 1.41 0 0 0 63.213 0H1.417zm2.476 22.796h16.655a.61.61 0 0 1 .611.611v37.495a.61.61 0 0 1-.611.611H3.893a.61.61 0 0 1-.611-.611V23.407a.61.61 0 0 1 .611-.611zm40.2.247h16.655a.61.61 0 0 1 .611.61v37.25a.61.61 0 0 1-.611.611H44.082a.61.61 0 0 1-.611-.611v-37.25a.61.61 0 0 1 .611-.61zm-19.865 15.56h16.196a.59.59 0 0 1 .593.595v21.72a.59.59 0 0 1-.593.593H24.217a.59.59 0 0 1-.593-.593V39.2a.59.59 0 0 1 .593-.595zm57.134-8.967V39.84a13.34 13.34 0 0 0 .491 3.565c.328 1.2.78 2.254 1.352 3.197.45.82 1.107 1.598 1.967 2.335s1.988 1.107 3.38 1.107c.533 0 .963.184 1.3.553.368.328.553.737.553 1.23a1.84 1.84 0 0 1-.553 1.352c-.328.328-.758.492-1.3.492-1.72 0-3.34-.47-4.856-1.414-1.352-.82-2.48-1.967-3.38-3.442-.82-1.27-1.455-2.684-1.906-4.24-.45-1.598-.676-3.175-.676-4.733V12.795a1.58 1.58 0 0 1 .553-1.23c.37-.37.8-.553 1.3-.553a1.57 1.57 0 0 1 1.229.553 1.57 1.57 0 0 1 .554 1.23V26h7.2c.533 0 .963.184 1.3.553.368.328.553.758.553 1.3 0 .492-.185.922-.553 1.3-.328.327-.758.5-1.3.5h-7.2zm15.26 24.034a1.88 1.88 0 0 1-1.291-.492c-.37-.37-.553-.8-.553-1.3V36.9a10.32 10.32 0 0 1 .86-4.179 11.11 11.11 0 0 1 2.336-3.442 11.14 11.14 0 0 1 3.442-2.336 10.31 10.31 0 0 1 4.18-.861h3c.492 0 .922.185 1.3.554a1.57 1.57 0 0 1 .553 1.229c0 .492-.184.922-.553 1.3-.37.327-.8.5-1.3.5h-3c-.984 0-1.926.205-2.828.615a7.2 7.2 0 0 0-2.274 1.537c-.614.655-1.127 1.434-1.536 2.335-.37.86-.554 1.783-.554 2.766v14.997c0 .492-.184.922-.553 1.3-.328.328-.737.492-1.23.492zm43.17-19.793v.185c.04.04.06.102.06.184 0 .164-.02.267-.06.308 0 .163-.02.266-.062.307v.06c-.08.082-.122.164-.122.246l-.062.062c-.04.04-.06.082-.06.123s-.04.082-.123.123a.73.73 0 0 1-.123.184c-.04 0-.082.02-.123.06l-.246.123c0 .04-.02.062-.06.062s-.082.02-.123.06l-20.714 7.868c.4 1.024.922 1.885 1.537 2.58.655.697 1.3 1.27 1.967 1.72.696.45 1.33.8 1.905 1.045l1.3.43c.86.287 1.823.43 2.9.43.532 0 1.167-.062 1.905-.185a10.16 10.16 0 0 0 2.274-.676c.78-.37 1.557-.88 2.336-1.537.778-.696 1.495-1.598 2.15-2.704.328-.615.86-.922 1.598-.922.37 0 .656.082.86.246.45.246.737.615.86 1.106.123.45.062.902-.184 1.352-1.27 2.213-2.95 3.934-5.04 5.163-2.05 1.2-4.282 1.783-6.7 1.783-1.352 0-2.663-.184-3.934-.553-3.155-.86-5.634-2.52-7.437-4.98-1.844-2.5-2.725-5.368-2.643-8.605.082-3.278 1.086-6.105 3.012-8.482 1.926-2.336 4.466-3.893 7.62-4.67l1.66-.308c.574-.082 1.147-.122 1.72-.122 2.582 0 4.917.655 7.007 1.966 2.13 1.312 3.8 3.135 5.04 5.47v.123c.04.04.06.082.06.123.04.04.062.122.062.245zm-4.487-.5c-.615-.82-1.3-1.475-2.028-1.967-.697-.492-1.393-.86-2.1-1.106-.697-.287-1.373-.472-2.028-.554-.615-.082-1.168-.123-1.66-.123-.4 0-.82.02-1.23.062s-.8.102-1.168.184c-.9.205-1.823.553-2.766 1.045a9.31 9.31 0 0 0-2.458 1.967c-.738.78-1.353 1.72-1.844 2.827s-.758 2.397-.8 3.873v.676l18.07-6.884zm10.598 20.283c-.533 0-.984-.164-1.352-.492a1.88 1.88 0 0 1-.492-1.291v-39.03c0-.533.164-.963.492-1.3.368-.37.82-.553 1.352-.553a1.58 1.58 0 0 1 1.23.553c.37.328.553.758.553 1.3v25.2h5.84c1.394 0 2.705-.266 3.934-.8 1.27-.533 2.356-1.25 3.258-2.15.942-.943 1.68-2.03 2.212-3.258a10.22 10.22 0 0 0 .799-3.995c0-.492.185-.902.554-1.23a1.77 1.77 0 0 1 1.3-.554c.5 0 .902.185 1.23.554.368.327.553.737.553 1.23 0 2.786-.758 5.306-2.274 7.56a12.59 12.59 0 0 1-4.733 4.425c2.008 1.148 3.585 2.643 4.733 4.487a11.84 11.84 0 0 1 1.721 3.627 14.06 14.06 0 0 1 .553 3.933c0 .492-.185.922-.553 1.3-.328.328-.738.492-1.23.492a1.88 1.88 0 0 1-1.29-.492c-.37-.37-.554-.8-.554-1.3a9.76 9.76 0 0 0-.8-3.933c-.532-1.27-1.27-2.356-2.212-3.258-.902-.942-1.988-1.68-3.258-2.213a9.8 9.8 0 0 0-3.934-.8h-5.84v10.203c0 .492-.184.922-.553 1.3-.328.328-.737.492-1.23.492zM190.776 52c-.983.533-2.028.943-3.134 1.23a12.71 12.71 0 0 1-3.32.43c-1.925 0-3.728-.348-5.408-1.045a14.58 14.58 0 0 1-4.364-3.012 14.56 14.56 0 0 1-3.012-4.364c-.697-1.68-1.045-3.483-1.045-5.4 0-1.884.348-3.667 1.045-5.347.737-1.68 1.74-3.155 3.012-4.425a13.69 13.69 0 0 1 4.364-2.951c1.68-.737 3.483-1.106 5.408-1.106 1.885 0 3.668.37 5.348 1.106a13.52 13.52 0 0 1 4.425 2.95c1.27 1.27 2.254 2.745 2.95 4.425.737 1.68 1.106 3.463 1.106 5.347v11.986c0 .492-.184.922-.553 1.3-.328.37-.758.553-1.3.553-.492 0-.922-.184-1.3-.553a1.88 1.88 0 0 1-.491-1.291V49.12c-1.025 1.147-2.275 2.1-3.75 2.888zM174.12 39.84c0 1.394.267 2.725.8 3.996.533 1.23 1.25 2.315 2.152 3.257.942.902 2.028 1.62 3.257 2.152a10.24 10.24 0 0 0 3.995.8c1.393 0 2.705-.267 3.934-.8 1.27-.533 2.356-1.25 3.258-2.152a10.44 10.44 0 0 0 2.213-3.257 10.24 10.24 0 0 0 .8-3.996c0-1.394-.267-2.704-.8-3.933-.533-1.27-1.27-2.356-2.213-3.258-.902-.942-1.988-1.68-3.258-2.213a9.8 9.8 0 0 0-3.934-.8 10.22 10.22 0 0 0-3.995.8 10.44 10.44 0 0 0-3.257 2.213c-.902.902-1.62 1.987-2.152 3.258-.532 1.23-.8 2.54-.8 3.933zM214.882 26c2.294 0 4.466.553 6.515 1.66 1.434.778 2.663 1.74 3.688 2.888V12.795a1.67 1.67 0 0 1 .492-1.23c.368-.37.82-.553 1.352-.553a1.58 1.58 0 0 1 1.23.553 1.57 1.57 0 0 1 .553 1.23V39.84c0 1.926-.37 3.73-1.106 5.4a13.7 13.7 0 0 1-2.95 4.364c-1.27 1.27-2.746 2.274-4.426 3.012-1.68.697-3.462 1.045-5.347 1.045-1.926 0-3.73-.348-5.4-1.045a14.58 14.58 0 0 1-4.364-3.012c-1.27-1.27-2.274-2.725-3.012-4.364-.696-1.68-1.045-3.483-1.045-5.4 0-1.884.35-3.667 1.045-5.347a14.37 14.37 0 0 1 3.012-4.425 13.69 13.69 0 0 1 4.364-2.951c1.68-.737 3.483-1.106 5.4-1.106zm10.203 13.83c0-1.393-.267-2.704-.8-3.933-.533-1.27-1.27-2.356-2.213-3.258-.9-.942-1.987-1.68-3.258-2.213-1.23-.532-2.54-.8-3.933-.8a10.24 10.24 0 0 0-3.995.799 10.43 10.43 0 0 0-3.258 2.213c-.902.902-1.62 1.987-2.15 3.258a9.78 9.78 0 0 0-.8 3.933c0 1.435.266 2.766.8 3.996s1.25 2.315 2.15 3.257c.942.902 2.028 1.62 3.258 2.152a10.24 10.24 0 0 0 3.995.799c1.393 0 2.704-.267 3.933-.8 1.27-.533 2.357-1.25 3.258-2.152a10.42 10.42 0 0 0 2.213-3.257c.532-1.23.8-2.56.8-3.996zm33.185-5.953v.185c.04.04.06.102.06.184 0 .164-.02.267-.06.308 0 .163-.02.266-.062.307v.06c-.082.082-.123.164-.123.246l-.06.062c-.04.04-.062.082-.062.123s-.04.082-.123.123a.73.73 0 0 1-.123.184c-.04 0-.082.02-.123.06l-.246.123c0 .04-.02.062-.06.062s-.082.02-.123.06l-20.714 7.868c.4 1.024.922 1.885 1.537 2.58.656.697 1.3 1.27 1.967 1.72.696.45 1.332.8 1.905 1.045l1.3.43c.86.287 1.823.43 2.9.43.533 0 1.168-.062 1.905-.185a10.16 10.16 0 0 0 2.274-.676c.78-.37 1.557-.88 2.336-1.537.78-.696 1.496-1.598 2.15-2.704.328-.615.86-.922 1.598-.922.37 0 .656.082.86.246.45.246.737.615.86 1.106.123.45.062.902-.184 1.352-1.27 2.213-2.95 3.934-5.04 5.163-2.05 1.2-4.282 1.783-6.7 1.783-1.352 0-2.663-.184-3.933-.553-3.155-.86-5.635-2.52-7.437-4.98-1.844-2.5-2.725-5.368-2.643-8.605.082-3.278 1.086-6.105 3-8.482 1.926-2.336 4.467-3.893 7.622-4.67l1.66-.308c.574-.082 1.148-.122 1.72-.122 2.582 0 4.918.655 7.007 1.966 2.13 1.312 3.8 3.135 5.04 5.47v.123c.04.04.062.082.062.123.04.04.06.122.06.245zm-4.487-.5c-.615-.82-1.3-1.475-2.028-1.967-.697-.492-1.394-.86-2.1-1.106-.697-.287-1.373-.472-2.03-.554a12.65 12.65 0 0 0-1.659-.123 12.32 12.32 0 0 0-1.229.062c-.4.04-.8.102-1.168.184-.902.205-1.824.553-2.766 1.045-.902.492-1.72 1.147-2.46 1.967-.737.78-1.352 1.72-1.844 2.827s-.758 2.397-.8 3.873v.676l18.07-6.884zM272.08 53.67a1.88 1.88 0 0 1-1.291-.492c-.37-.37-.553-.8-.553-1.3V36.9a10.32 10.32 0 0 1 .86-4.179 11.11 11.11 0 0 1 2.336-3.442 11.14 11.14 0 0 1 3.442-2.336c1.312-.574 2.704-.86 4.18-.86 1.844 0 3.544.43 5.1 1.3a10.96 10.96 0 0 1 3.934 3.565 10.59 10.59 0 0 1 3.811-3.565 10.73 10.73 0 0 1 5.163-1.29c1.475 0 2.868.287 4.18.86s2.46 1.352 3.442 2.336a11.15 11.15 0 0 1 2.336 3.442c.574 1.312.86 2.704.86 4.18v14.997c0 .492-.184.922-.553 1.3-.328.328-.737.492-1.23.492a1.88 1.88 0 0 1-1.291-.492c-.37-.37-.553-.8-.553-1.3V36.9c0-.983-.184-1.905-.553-2.766-.37-.9-.88-1.68-1.537-2.335a7.05 7.05 0 0 0-2.335-1.537c-.86-.37-1.783-.553-2.766-.553a7.4 7.4 0 0 0-2.828.553 7.2 7.2 0 0 0-2.274 1.537c-.615.655-1.127 1.434-1.537 2.335a6.96 6.96 0 0 0-.553 2.766v14.997c0 .492-.184.922-.553 1.3-.328.328-.737.492-1.23.492a1.88 1.88 0 0 1-1.291-.492c-.37-.37-.553-.8-.553-1.3V36.9c0-.983-.184-1.905-.553-2.766-.37-.9-.88-1.68-1.537-2.335a7.05 7.05 0 0 0-2.335-1.537c-.86-.37-1.783-.553-2.766-.553a7.4 7.4 0 0 0-2.828.553 7.2 7.2 0 0 0-2.274 1.537c-.615.655-1.127 1.434-1.537 2.335a6.96 6.96 0 0 0-.553 2.766v14.997c0 .492-.184.922-.553 1.3-.328.328-.737.492-1.23.492zm67.364-19.793v.185c.04.04.06.102.06.184 0 .164-.02.267-.06.308 0 .163-.02.266-.062.307v.06c-.082.082-.123.164-.123.246l-.06.062c-.04.04-.062.082-.062.123s-.04.082-.123.123a.73.73 0 0 1-.123.184c-.04 0-.082.02-.123.06l-.246.123c0 .04-.02.062-.06.062s-.082.02-.123.06l-20.714 7.868c.4 1.024.922 1.885 1.537 2.58.656.697 1.3 1.27 1.967 1.72.696.45 1.332.8 1.905 1.045l1.3.43c.86.287 1.823.43 2.9.43.532 0 1.168-.062 1.905-.185a10.16 10.16 0 0 0 2.274-.676c.78-.37 1.557-.88 2.336-1.537.78-.696 1.496-1.598 2.15-2.704.328-.615.86-.922 1.598-.922.37 0 .656.082.86.246.45.246.737.615.86 1.106.123.45.062.902-.184 1.352-1.27 2.213-2.95 3.934-5.04 5.163-2.05 1.2-4.282 1.783-6.7 1.783-1.352 0-2.663-.184-3.933-.553-3.156-.86-5.635-2.52-7.438-4.98-1.843-2.5-2.724-5.368-2.642-8.605.082-3.278 1.085-6.105 3-8.482 1.926-2.336 4.467-3.893 7.622-4.67l1.66-.308c.574-.082 1.148-.122 1.72-.122 2.582 0 4.918.655 7.007 1.966 2.13 1.312 3.8 3.135 5.04 5.47v.123c.04.04.062.082.062.123.04.04.06.122.06.245zm-4.487-.5c-.615-.82-1.3-1.475-2.03-1.967-.696-.492-1.393-.86-2.1-1.106-.697-.287-1.373-.472-2.03-.554a12.65 12.65 0 0 0-1.659-.123 12.32 12.32 0 0 0-1.229.062c-.4.04-.8.102-1.168.184-.902.205-1.824.553-2.766 1.045-.902.492-1.72 1.147-2.46 1.967-.737.78-1.352 1.72-1.844 2.827s-.758 2.397-.8 3.873v.676l18.07-6.884zM356.68 26c2.294 0 4.466.553 6.515 1.66 1.434.778 2.663 1.74 3.688 2.888V12.795c0-.492.164-.9.5-1.23a1.84 1.84 0 0 1 1.353-.553 1.58 1.58 0 0 1 1.23.553 1.57 1.57 0 0 1 .553 1.23V39.84c0 1.926-.37 3.73-1.106 5.4a13.69 13.69 0 0 1-2.951 4.364 14.37 14.37 0 0 1-4.425 3.012c-1.68.697-3.462 1.045-5.347 1.045-1.926 0-3.73-.348-5.4-1.045a14.58 14.58 0 0 1-4.364-3.012c-1.27-1.27-2.274-2.725-3.012-4.364-.697-1.68-1.045-3.483-1.045-5.4 0-1.884.348-3.667 1.045-5.347a14.37 14.37 0 0 1 3.012-4.425 13.69 13.69 0 0 1 4.364-2.951c1.68-.737 3.483-1.106 5.4-1.106zm10.203 13.83c0-1.393-.267-2.704-.8-3.933-.533-1.27-1.27-2.356-2.213-3.258-.902-.942-1.987-1.68-3.258-2.213-1.23-.532-2.54-.8-3.933-.8a10.23 10.23 0 0 0-3.996.8 10.44 10.44 0 0 0-3.257 2.213c-.902.902-1.62 1.987-2.15 3.258a9.78 9.78 0 0 0-.8 3.933c0 1.435.266 2.766.8 3.996s1.25 2.315 2.15 3.257c.942.902 2.028 1.62 3.257 2.152a10.24 10.24 0 0 0 3.996.8c1.394 0 2.704-.267 3.933-.8 1.27-.533 2.356-1.25 3.258-2.152a10.44 10.44 0 0 0 2.213-3.257c.532-1.23.8-2.56.8-3.996zm9.52-16.217a1.88 1.88 0 0 1-1.291-.492 1.88 1.88 0 0 1-.492-1.291v-.676a1.88 1.88 0 0 1 .492-1.29c.37-.37.8-.554 1.3-.554s.922.185 1.3.554.553.8.553 1.3v.676c0 .492-.185.922-.553 1.3a1.88 1.88 0 0 1-1.291.492zm0 30.056a1.88 1.88 0 0 1-1.291-.492c-.328-.37-.492-.82-.492-1.352v-23.97c0-.533.164-.963.492-1.3.37-.37.8-.553 1.3-.553s.922.184 1.3.553c.368.328.553.758.553 1.3v23.97a1.84 1.84 0 0 1-.553 1.352 1.88 1.88 0 0 1-1.291.492zM402.082 52a13.87 13.87 0 0 1-3.135 1.23c-1.065.287-2.172.43-3.32.43-1.926 0-3.73-.348-5.4-1.045a14.58 14.58 0 0 1-4.364-3.012c-1.27-1.27-2.274-2.725-3.012-4.364-.696-1.68-1.045-3.483-1.045-5.4 0-1.884.35-3.667 1.045-5.347a14.37 14.37 0 0 1 3.012-4.425 13.69 13.69 0 0 1 4.364-2.951c1.68-.737 3.483-1.106 5.4-1.106a13.18 13.18 0 0 1 5.347 1.106 13.52 13.52 0 0 1 7.376 7.376 13.15 13.15 0 0 1 1.106 5.347v11.986c0 .492-.184.922-.553 1.3-.328.37-.758.553-1.3.553-.5 0-.922-.184-1.3-.553a1.88 1.88 0 0 1-.492-1.291V49.12c-1.024 1.147-2.274 2.1-3.75 2.888zm-16.657-12.17a10.21 10.21 0 0 0 .8 3.996c.533 1.23 1.25 2.315 2.15 3.257a10.99 10.99 0 0 0 3.258 2.152 10.24 10.24 0 0 0 3.995.799c1.393 0 2.704-.267 3.934-.8 1.27-.533 2.356-1.25 3.257-2.152a10.42 10.42 0 0 0 2.213-3.257c.533-1.27.8-2.602.8-3.996s-.266-2.704-.8-3.933c-.533-1.27-1.27-2.356-2.213-3.258-.9-.942-1.987-1.68-3.257-2.213a9.8 9.8 0 0 0-3.934-.8 10.24 10.24 0 0 0-3.995.799c-1.23.533-2.315 1.27-3.258 2.213-.9.902-1.618 1.987-2.15 3.258a9.78 9.78 0 0 0-.8 3.933z"/></svg>