<svg xmlns="http://www.w3.org/2000/svg" viewBox="0 0 211 47.52"><defs><style>*{fill:#fff;}</style></defs><path d="M28.36 27.78a8.66 8.66 0 0 1-.21 1.89 8.89 8.89 0 0 1-.61 1.94 9 9 0 0 1-1.12 1.83A7.36 7.36 0 0 1 24.79 35a8 8 0 0 1-2.2 1.06 9.27 9.27 0 0 1-2.84.41H8.64a10.09 10.09 0 0 1-1.84-.19 10.58 10.58 0 0 1-1.95-.64A9.75 9.75 0 0 1 3 34.5a8.35 8.35 0 0 1-1.53-1.63 8.7 8.7 0 0 1-1.07-2.2 9.46 9.46 0 0 1-.4-2.89V0h6.16v27.78a2.4 2.4 0 0 0 .71 1.82 2.49 2.49 0 0 0 1.77.66h11.1a2.34 2.34 0 0 0 1.8-.69 2.46 2.46 0 0 0 .66-1.79v-8.34a2.34 2.34 0 0 0-.69-1.8 2.46 2.46 0 0 0-1.77-.66H8.64v-6.16h11.1a8.09 8.09 0 0 1 1.84.22 8.56 8.56 0 0 1 1.92.61 9.26 9.26 0 0 1 1.85 1.11 7.32 7.32 0 0 1 1.54 1.64 8.17 8.17 0 0 1 1.1 2.2 9.24 9.24 0 0 1 .4 2.84zm30.84 5.54a3.13 3.13 0 0 1-.2 1.23 2.94 2.94 0 0 1-.67 1 3.11 3.11 0 0 1-2.15.88H42.23a12.76 12.76 0 0 1-2.44-.26 12.08 12.08 0 0 1-2.53-.83 15.06 15.06 0 0 1-2.44-1.47 9.94 9.94 0 0 1-2-2.15 11.79 11.79 0 0 1-1.42-2.94 12.34 12.34 0 0 1-.52-3.74V10.82H37v14.2a5.64 5.64 0 0 0 .4 2.18 5.08 5.08 0 0 0 2.79 2.7 6.19 6.19 0 0 0 2.09.35h10.77V10.82h6.15zm9.02 3.1h-6.15v-25.6h6.15zm14.46 0h-2.75a10 10 0 0 1-2.84-.45 8.53 8.53 0 0 1-2.79-1.47 8.08 8.08 0 0 1-2.15-2.68 8.71 8.71 0 0 1-.86-4V0h6.16v27.78a2.44 2.44 0 0 0 .71 1.82 2.49 2.49 0 0 0 1.77.66h2.75zm30.72-8.64a9.46 9.46 0 0 1-.4 2.89 8.38 8.38 0 0 1-1.07 2.23 7.67 7.67 0 0 1-1.53 1.63 9.65 9.65 0 0 1-1.85 1.09 9.8 9.8 0 0 1-1.94.64 10.28 10.28 0 0 1-1.85.19h-11.1a9.62 9.62 0 0 1-2.85-.4 8.79 8.79 0 0 1-2.22-1.07A8.07 8.07 0 0 1 87 33.39a8.84 8.84 0 0 1-1.09-1.83 9 9 0 0 1-.91-3.78v-8.34a8.54 8.54 0 0 1 .85-4 8.16 8.16 0 0 1 5-4.17 9.87 9.87 0 0 1 2.8-.45h11.1v6.16H93.7a2.53 2.53 0 0 0-1.87.64 2.44 2.44 0 0 0-.64 1.82v8.3a2.62 2.62 0 0 0 .62 1.94 2.49 2.49 0 0 0 1.85.64h11.1a2.46 2.46 0 0 0 1.87-.64 2.54 2.54 0 0 0 .62-1.84V0h6.15zm27.67 0a9.46 9.46 0 0 1-.4 2.86 8.7 8.7 0 0 1-1.07 2.23 7.47 7.47 0 0 1-1.54 1.63 9.58 9.58 0 0 1-1.84 1.09 9.89 9.89 0 0 1-1.95.64 10.09 10.09 0 0 1-1.84.19h-16.67v-6.16h16.62a2.53 2.53 0 0 0 1.89-.64 2.47 2.47 0 0 0 .64-1.84 2.25 2.25 0 0 0-2.48-2.47h-9.54a7.6 7.6 0 0 1-3.46-.71 7.11 7.11 0 0 1-2.32-1.77 7 7 0 0 1-1.28-2.3 7.94 7.94 0 0 1-.38-2.3 7.34 7.34 0 0 1 .74-3.45 6.74 6.74 0 0 1 1.84-2.3 7.07 7.07 0 0 1 2.42-1.25 8.26 8.26 0 0 1 2.44-.41H138v6.16h-15.07a1.93 1.93 0 0 0-.75.12.88.88 0 0 0-.41.28.83.83 0 0 0-.14.38 2.42 2.42 0 0 0 0 .38 1.31 1.31 0 0 0 .14.59.78.78 0 0 0 .28.31 1.39 1.39 0 0 0 .41.12h10a8.65 8.65 0 0 1 4 .85 8 8 0 0 1 2.68 2.15 8.28 8.28 0 0 1 1.47 2.8 9.66 9.66 0 0 1 .47 2.82zm8.1 5.54a2.91 2.91 0 0 1-.26 1.2 3.09 3.09 0 0 1-.66 1 2.87 2.87 0 0 1-1 .64 2.8 2.8 0 0 1-1.16.24 3 3 0 0 1-3.05-3.05 2.83 2.83 0 0 1 .24-1.16 2.87 2.87 0 0 1 .64-1 3.09 3.09 0 0 1 1-.66 2.91 2.91 0 0 1 1.2-.26 2.66 2.66 0 0 1 1.16.26 3.08 3.08 0 0 1 1.64 1.64 2.7 2.7 0 0 1 .25 1.15zm31.02 5.56a9.23 9.23 0 0 1-.41 2.84 7.94 7.94 0 0 1-1.06 2.23 7.05 7.05 0 0 1-1.54 1.63 8.41 8.41 0 0 1-1.85 1.09 8.59 8.59 0 0 1-1.94.62 8.75 8.75 0 0 1-1.85.21h-19.7v-6.13h19.7a2.5 2.5 0 0 0 1.87-.64 2.58 2.58 0 0 0 .62-1.85V19.44a2.21 2.21 0 0 0-2.49-2.46h-11.1a2.35 2.35 0 0 0-1.8.71 2.42 2.42 0 0 0-.66 1.75v8.34a2.47 2.47 0 0 0 .64 1.84 2.51 2.51 0 0 0 1.87.64h11.05v6.16h-11.1a10.28 10.28 0 0 1-1.85-.19 10.74 10.74 0 0 1-1.94-.64 9.75 9.75 0 0 1-1.82-1.09 7.47 7.47 0 0 1-1.54-1.63 8.7 8.7 0 0 1-1.07-2.2 9.78 9.78 0 0 1-.4-2.86v-8.37a9.45 9.45 0 0 1 .19-1.85 10 10 0 0 1 .64-1.91 8.9 8.9 0 0 1 1.09-1.85 7.71 7.71 0 0 1 1.63-1.54 8.36 8.36 0 0 1 2.23-1.06 9.18 9.18 0 0 1 2.84-.41h11.1a8.17 8.17 0 0 1 1.85.22 8.56 8.56 0 0 1 1.94.61 9.26 9.26 0 0 1 1.85 1.11 7.1 7.1 0 0 1 1.54 1.64 7.89 7.89 0 0 1 1.06 2.2 9.23 9.23 0 0 1 .41 2.84zm30.8 0a9.24 9.24 0 0 1-.4 2.84 8.24 8.24 0 0 1-1.07 2.23 6.85 6.85 0 0 1-1.53 1.63 8.35 8.35 0 0 1-1.85 1.09 10.05 10.05 0 0 1-3.79.83h-19.7v-6.13h19.7a2.52 2.52 0 0 0 1.87-.64 2.58 2.58 0 0 0 .61-1.85V19.44a2.2 2.2 0 0 0-2.48-2.46h-11.1a2.38 2.38 0 0 0-1.8.71 2.42 2.42 0 0 0-.66 1.75v8.34a2.47 2.47 0 0 0 .64 1.84 2.53 2.53 0 0 0 1.87.64h11.06v6.16h-11.1a10.09 10.09 0 0 1-1.84-.19 10.25 10.25 0 0 1-1.94-.64 9.82 9.82 0 0 1-1.83-1.09 8 8 0 0 1-1.54-1.63 8.68 8.68 0 0 1-1.1-2.2 9.46 9.46 0 0 1-.4-2.86v-8.37a10.23 10.23 0 0 1 .18-1.85 10.72 10.72 0 0 1 .64-1.91 9.36 9.36 0 0 1 1.09-1.85 7.76 7.76 0 0 1 1.64-1.54 8.3 8.3 0 0 1 2.22-1.06 9.27 9.27 0 0 1 2.84-.41h11.1a8.09 8.09 0 0 1 1.84.22 8.64 8.64 0 0 1 2 .61 9.19 9.19 0 0 1 1.84 1.11 6.9 6.9 0 0 1 1.54 1.64 8.19 8.19 0 0 1 1.07 2.2 9.24 9.24 0 0 1 .4 2.84zM68.2 3.06a2.88 2.88 0 0 1-.26 1.2 3.11 3.11 0 0 1-.67 1 2.86 2.86 0 0 1-1 .63 2.83 2.83 0 0 1-1.16.24 3.06 3.06 0 0 1-1.2-.24 3.18 3.18 0 0 1-1-.63 3.19 3.19 0 0 1-.64-1 3 3 0 0 1-.24-1.2 2.83 2.83 0 0 1 .24-1.16 2.74 2.74 0 0 1 .64-1 3 3 0 0 1 1-.67 2.91 2.91 0 0 1 1.2-.26 2.7 2.7 0 0 1 1.16.26 2.68 2.68 0 0 1 1 .67 2.68 2.68 0 0 1 .67 1 2.7 2.7 0 0 1 .26 1.16z"/></svg>