<svg xmlns="http://www.w3.org/2000/svg" viewBox="0 0 225.93 39.13"><defs><style>*{fill:#fff;}</style></defs><path d="M0 0h3.9v16.8h1.27l14.31-9.12h5.84L8.76 18.4 26 30.72h-5.87l-14.94-11H3.9v11H0zm40.25 31.16a35.39 35.39 0 0 1-6.61-.53 10.65 10.65 0 0 1-4.42-1.83 7.32 7.32 0 0 1-2.48-3.48 16.77 16.77 0 0 1-.74-5.48 21.45 21.45 0 0 1 .77-6.25 8.19 8.19 0 0 1 2.48-3.93 9.85 9.85 0 0 1 4.42-2A31.93 31.93 0 0 1 40.25 7a25.11 25.11 0 0 1 4.82.4 12.87 12.87 0 0 1 3.49 1.2 7.61 7.61 0 0 1 2.35 1.84 9 9 0 0 1 1.42 2.27A9.49 9.49 0 0 1 53 15.5a27.81 27.81 0 0 1 .2 3.38l-.33 1.28h-23a14.19 14.19 0 0 0 .53 4.22 4.24 4.24 0 0 0 1.75 2.41 7.47 7.47 0 0 0 3.2 1 48 48 0 0 0 4.91.21q2.69 0 4.44-.15a10 10 0 0 0 2.78-.54 2.75 2.75 0 0 0 1.46-1.1 3.73 3.73 0 0 0 .41-1.85h3.9a7 7 0 0 1-.66 3.17 5 5 0 0 1-2.18 2.12 12.66 12.66 0 0 1-4 1.18 43.7 43.7 0 0 1-6.16.33zm0-20.92l-3.48.08a15.07 15.07 0 0 0-2.68.35 6.41 6.41 0 0 0-2 .78 4.61 4.61 0 0 0-1.31 1.2 4.74 4.74 0 0 0-.73 1.94 16.15 16.15 0 0 0-.24 3h19.53a10.55 10.55 0 0 0-.51-3.67 4.89 4.89 0 0 0-1.6-2.19 6.37 6.37 0 0 0-2.82-1.18 23.53 23.53 0 0 0-4.16-.31zm31.81 20.92a35.47 35.47 0 0 1-6.61-.53A10.65 10.65 0 0 1 61 28.8a7.39 7.39 0 0 1-2.48-3.48 16.77 16.77 0 0 1-.77-5.48 21.45 21.45 0 0 1 .77-6.25A8.27 8.27 0 0 1 61 9.66a9.85 9.85 0 0 1 4.42-2A32 32 0 0 1 72.06 7a25 25 0 0 1 4.82.4 12.76 12.76 0 0 1 3.49 1.2 7.78 7.78 0 0 1 2.36 1.84 9.64 9.64 0 0 1 1.42 2.27 10.15 10.15 0 0 1 .71 2.79 30.06 30.06 0 0 1 .19 3.38l-.33 1.28h-23a14.22 14.22 0 0 0 .52 4.22A4.28 4.28 0 0 0 64 26.79a7.47 7.47 0 0 0 3.2 1 48.14 48.14 0 0 0 4.91.21q2.68 0 4.44-.15a10 10 0 0 0 2.79-.54 2.72 2.72 0 0 0 1.45-1.1 3.73 3.73 0 0 0 .41-1.85h3.9a7 7 0 0 1-.66 3.17 5 5 0 0 1-2.18 2.12 12.66 12.66 0 0 1-4 1.18 43.7 43.7 0 0 1-6.2.33zm0-20.92l-3.47.08a14.82 14.82 0 0 0-2.68.35 6.37 6.37 0 0 0-2 .78 4.61 4.61 0 0 0-1.31 1.2 4.89 4.89 0 0 0-.73 1.94 16.24 16.24 0 0 0-.23 3h19.51a10.82 10.82 0 0 0-.5-3.67A5 5 0 0 0 79 11.74a6.37 6.37 0 0 0-2.82-1.18 23.45 23.45 0 0 0-4.12-.32zm32.47 20.92a23.23 23.23 0 0 1-4.66-.39 20.23 20.23 0 0 1-3-.84 3.47 3.47 0 0 1-1.79-1.43l-.91-1.51v3.73h-3.9V0h3.9v9.84a3.65 3.65 0 0 1 .88-.9A6.56 6.56 0 0 1 96.83 8a16.35 16.35 0 0 1 3-.7 31.62 31.62 0 0 1 4.7-.3 32.78 32.78 0 0 1 6.61.57 10.24 10.24 0 0 1 4.42 2 7.82 7.82 0 0 1 2.44 3.72 19 19 0 0 1 .77 5.84A18.88 18.88 0 0 1 118 25a7.72 7.72 0 0 1-2.48 3.69 10.22 10.22 0 0 1-4.42 1.94 32.78 32.78 0 0 1-6.57.53zm0-3.2l3.92-.14a13.83 13.83 0 0 0 2.81-.5 5.15 5.15 0 0 0 1.88-1 4.15 4.15 0 0 0 1.11-1.61 8.31 8.31 0 0 0 .53-2.36c.09-.91.13-2 .13-3.23l-.13-3.25a8.47 8.47 0 0 0-.53-2.37 4.26 4.26 0 0 0-1.11-1.62 5.17 5.17 0 0 0-1.88-1 13.17 13.17 0 0 0-2.81-.5l-3.92-.14-3.47.09a13.19 13.19 0 0 0-2.68.4 5.92 5.92 0 0 0-2 .91 4.59 4.59 0 0 0-1.31 1.59 8.34 8.34 0 0 0-.74 2.45 23.52 23.52 0 0 0-.23 3.51 22.67 22.67 0 0 0 .23 3.45 8.06 8.06 0 0 0 .74 2.41 4.53 4.53 0 0 0 1.31 1.55 5.7 5.7 0 0 0 2 .88 14 14 0 0 0 2.68.39l3.47.13zm27.61-7.82a32.05 32.05 0 0 1-3.6-.33 10.48 10.48 0 0 1-2.54-.71 4.14 4.14 0 0 1-1.59-1.23 4.78 4.78 0 0 1-.83-1.9 11.17 11.17 0 0 1-.25-2.45 5.63 5.63 0 0 1 .77-3 5.46 5.46 0 0 1 2.48-2A15.86 15.86 0 0 1 131 7.38a53.84 53.84 0 0 1 6.64-.38 41.14 41.14 0 0 1 6.36.4 12.17 12.17 0 0 1 4 1.23 4.71 4.71 0 0 1 2 2.13 7.07 7.07 0 0 1 .59 3h-3.89a3.3 3.3 0 0 0-.42-1.76 2.78 2.78 0 0 0-1.45-1.07 10.74 10.74 0 0 0-2.79-.54c-1.17-.1-2.65-.15-4.43-.15l-4.91.08a15.47 15.47 0 0 0-3.21.4 3.16 3.16 0 0 0-1.74 1 2.8 2.8 0 0 0-.53 1.82 9.69 9.69 0 0 0 .09 1.33 2.19 2.19 0 0 0 .42 1.07 2 2 0 0 0 1 .64 8.63 8.63 0 0 0 1.71.33c.73.07 1.62.11 2.69.12H137l4.84.12a27.11 27.11 0 0 1 3.6.42 7.31 7.31 0 0 1 2.51.92 6.23 6.23 0 0 1 1.6 1.35 4.33 4.33 0 0 1 .84 1.72 9.76 9.76 0 0 1 .24 2.29 10.37 10.37 0 0 1-.24 2.33 4.84 4.84 0 0 1-.85 1.82 5.3 5.3 0 0 1-1.66 1.36 10.29 10.29 0 0 1-2.63.92 29 29 0 0 1-3.78.52l-5.12.17a43.88 43.88 0 0 1-6.14-.36 13 13 0 0 1-4-1.15A5 5 0 0 1 124 27.4a6.58 6.58 0 0 1-.66-3.08h3.9a4.09 4.09 0 0 0 .41 1.95 2.79 2.79 0 0 0 1.46 1.17 9.77 9.77 0 0 0 2.79.57c1.16.1 2.64.15 4.43.15l4.15-.11a22.27 22.27 0 0 0 2.87-.35 7.65 7.65 0 0 0 1.82-.58 2.77 2.77 0 0 0 1-.82 2.45 2.45 0 0 0 .43-1.07 7.58 7.58 0 0 0 .1-1.31 5.87 5.87 0 0 0-.1-1.17 2.92 2.92 0 0 0-.41-1 2 2 0 0 0-1-.77 7.15 7.15 0 0 0-1.71-.43 21.77 21.77 0 0 0-2.69-.24l-3.87-.07-4.78-.1zm60.68 7.38a17.34 17.34 0 0 1-.77 5.58 7.66 7.66 0 0 1-2.48 3.58 10 10 0 0 1-4.42 1.91 34.55 34.55 0 0 1-6.61.54 48 48 0 0 1-6.14-.32 14.22 14.22 0 0 1-4-1 4.72 4.72 0 0 1-2.19-1.81 5 5 0 0 1-.66-2.64h3.9a2 2 0 0 0 .41 1.28 2.82 2.82 0 0 0 1.46.77 14.64 14.64 0 0 0 2.79.4l4.43.1a45.28 45.28 0 0 0 4.91-.21 7.46 7.46 0 0 0 3.2-1 4.36 4.36 0 0 0 1.75-2.36 13.78 13.78 0 0 0 .53-4.22 4.74 4.74 0 0 1-.91 1 6.14 6.14 0 0 1-1.8 1 15.53 15.53 0 0 1-3.06.8 28.28 28.28 0 0 1-4.62.32 32.88 32.88 0 0 1-6.62-.57 10.28 10.28 0 0 1-4.42-1.95 7.72 7.72 0 0 1-2.5-3.6 18.85 18.85 0 0 1-.78-5.88 19.27 19.27 0 0 1 .78-6 7.73 7.73 0 0 1 2.47-3.74 10.16 10.16 0 0 1 4.42-1.94 33.71 33.71 0 0 1 6.65-.56 31.36 31.36 0 0 1 4.62.28 17.11 17.11 0 0 1 3.06.7 6.23 6.23 0 0 1 1.8.91 4.53 4.53 0 0 1 .91.89v-2.1h3.89zm-14.28-17.28l-3.93.14a13.17 13.17 0 0 0-2.81.5 5 5 0 0 0-1.87 1 4.2 4.2 0 0 0-1.12 1.64 9 9 0 0 0-.53 2.41c-.09.94-.13 2-.13 3.31l.13 3.27a8.91 8.91 0 0 0 .53 2.38 4.24 4.24 0 0 0 1.12 1.63 5.11 5.11 0 0 0 1.87 1 13.83 13.83 0 0 0 2.81.5l3.93.14 3.47-.09a14.18 14.18 0 0 0 2.68-.4 5.86 5.86 0 0 0 1.95-.9 4.45 4.45 0 0 0 1.36-1.58 8 8 0 0 0 .74-2.46 22.5 22.5 0 0 0 .24-3.55 22.54 22.54 0 0 0-.24-3.56 8 8 0 0 0-.74-2.47 4.33 4.33 0 0 0-1.31-1.57 5.65 5.65 0 0 0-1.95-.88 13.5 13.5 0 0 0-2.68-.38l-3.52-.08zm47.39 17.28a17.34 17.34 0 0 1-.77 5.58 7.71 7.71 0 0 1-2.47 3.58 10.06 10.06 0 0 1-4.43 1.91 34.48 34.48 0 0 1-6.61.54 48 48 0 0 1-6.14-.32 14.22 14.22 0 0 1-4-1 4.72 4.72 0 0 1-2.19-1.81 5 5 0 0 1-.66-2.64h3.9a2 2 0 0 0 .41 1.28 2.82 2.82 0 0 0 1.46.77 14.77 14.77 0 0 0 2.79.4l4.43.1a45.28 45.28 0 0 0 4.91-.21 7.46 7.46 0 0 0 3.2-1 4.31 4.31 0 0 0 1.75-2.36 13.78 13.78 0 0 0 .53-4.22 4.74 4.74 0 0 1-.91 1 6.14 6.14 0 0 1-1.8 1 15.53 15.53 0 0 1-3.06.8 28.28 28.28 0 0 1-4.62.32 32.88 32.88 0 0 1-6.62-.57 10.28 10.28 0 0 1-4.42-1.95 7.79 7.79 0 0 1-2.47-3.72 18.88 18.88 0 0 1-.77-5.88 19.3 19.3 0 0 1 .77-6 7.8 7.8 0 0 1 2.47-3.74A10.16 10.16 0 0 1 205 7.6a33.71 33.71 0 0 1 6.65-.6 31.36 31.36 0 0 1 4.62.28 17.11 17.11 0 0 1 3.06.7 6.23 6.23 0 0 1 1.8.91 4.53 4.53 0 0 1 .91.89v-2.1h3.89zm-14.28-17.28l-3.93.14a13.17 13.17 0 0 0-2.81.5 5 5 0 0 0-1.87 1 4.2 4.2 0 0 0-1.12 1.64 9 9 0 0 0-.53 2.41c-.09.94-.13 2-.13 3.31l.13 3.27a8.91 8.91 0 0 0 .53 2.38 4.24 4.24 0 0 0 1.08 1.63 5.11 5.11 0 0 0 1.87 1 13.83 13.83 0 0 0 2.81.5l3.93.14 3.47-.09a14.18 14.18 0 0 0 2.68-.4 5.86 5.86 0 0 0 1.95-.9 4.45 4.45 0 0 0 1.31-1.58 8 8 0 0 0 .74-2.46 22.5 22.5 0 0 0 .24-3.55 22.54 22.54 0 0 0-.24-3.56 8 8 0 0 0-.74-2.47 4.33 4.33 0 0 0-1.31-1.57 5.65 5.65 0 0 0-1.95-.88 13.5 13.5 0 0 0-2.68-.38l-3.43-.08z"/><rect x="154.33" y="28.22" width="5.48" height="5.48" rx="1.12" transform="matrix(.15609 -.987743 .987743 .15609 101.99 181.27)"/></svg>