<?xml version="1.0" encoding="UTF-8" standalone="no"?><!DOCTYPE svg PUBLIC "-//W3C//DTD SVG 1.1//EN" "http://www.w3.org/Graphics/SVG/1.1/DTD/svg11.dtd"><svg width="100%" height="100%" viewBox="0 0 85 120" version="1.1" xmlns="http://www.w3.org/2000/svg" xmlns:xlink="http://www.w3.org/1999/xlink" xml:space="preserve" xmlns:serif="http://www.serif.com/" style="fill-rule:evenodd;clip-rule:evenodd;stroke-linecap:round;stroke-linejoin:round;"><g id="g1268"><g id="g1257"><path id="rect815-8-6-6-5" d="M72.545,4.448c0,-0.548 -0.445,-0.993 -0.993,-0.993l-67.104,0c-0.548,0 -0.993,0.445 -0.993,0.993l0,67.104c0,0.548 0.445,0.993 0.993,0.993l67.104,0c0.548,0 0.993,-0.445 0.993,-0.993l0,-67.104Z" style="fill:#fff;stroke:#fff;stroke-width:6.91px;"/><path id="rect853-5-0-7" d="M24.722,27.371c0,-0.401 -0.326,-0.726 -0.727,-0.726l-19.814,0c-0.401,0 -0.726,0.325 -0.726,0.726l0,44.608c0,0.401 0.325,0.726 0.726,0.726l19.814,0c0.401,0 0.727,-0.325 0.727,-0.726l0,-44.608Z" style="stroke:#000;stroke-width:0.44px;"/><path id="rect853-3-7-8-1" d="M48.334,46.158c0,-0.39 -0.317,-0.706 -0.706,-0.706l-19.267,0c-0.39,0 -0.706,0.316 -0.706,0.706l0,25.841c0,0.39 0.316,0.706 0.706,0.706l19.267,0c0.389,0 0.706,-0.316 0.706,-0.706l0,-25.841Z" style="stroke:#000;stroke-width:0.34px;"/><path id="rect853-2-0-5-9" d="M72.534,27.665c0,-0.401 -0.326,-0.727 -0.726,-0.727l-19.815,0c-0.401,0 -0.726,0.326 -0.726,0.727l0,44.314c0,0.401 0.325,0.726 0.726,0.726l19.815,0c0.4,0 0.726,-0.325 0.726,-0.726l0,-44.314Z" style="stroke:#000;stroke-width:0.44px;"/></g><g id="text953-7-9-2"><path d="M4.899,88.888l0,3.856c0,0.449 0.062,0.899 0.186,1.348c0.124,0.449 0.295,0.851 0.511,1.208c0.171,0.309 0.418,0.604 0.744,0.882c0.325,0.279 0.751,0.419 1.277,0.419c0.202,0 0.368,0.065 0.5,0.197c0.131,0.132 0.197,0.29 0.197,0.476c0,0.202 -0.066,0.368 -0.197,0.5c-0.132,0.131 -0.298,0.197 -0.5,0.197c-0.65,0 -1.262,-0.178 -1.835,-0.534c-0.511,-0.31 -0.937,-0.744 -1.277,-1.301c-0.31,-0.48 -0.55,-1.018 -0.721,-1.615c-0.17,-0.596 -0.255,-1.188 -0.255,-1.777l0,-10.221c0,-0.186 0.07,-0.344 0.209,-0.476c0.139,-0.132 0.302,-0.197 0.488,-0.197c0.186,0 0.344,0.065 0.476,0.197c0.132,0.132 0.197,0.29 0.197,0.476l0,4.995l2.718,0c0.202,0 0.368,0.065 0.5,0.197c0.131,0.132 0.197,0.298 0.197,0.5c0,0.185 -0.066,0.344 -0.197,0.476c-0.132,0.131 -0.298,0.197 -0.5,0.197l-2.718,0Z" style="fill:#fff;fill-rule:nonzero;"/><path d="M10.684,97.971c-0.186,0 -0.349,-0.066 -0.488,-0.197c-0.14,-0.132 -0.209,-0.291 -0.209,-0.477l0,-5.668c0,-0.557 0.108,-1.084 0.325,-1.579c0.217,-0.496 0.511,-0.929 0.883,-1.301c0.371,-0.372 0.805,-0.666 1.301,-0.883c0.495,-0.217 1.022,-0.325 1.579,-0.325l1.139,0c0.185,0 0.348,0.066 0.487,0.197c0.14,0.132 0.209,0.291 0.209,0.477c0,0.185 -0.069,0.344 -0.209,0.476c-0.139,0.131 -0.302,0.197 -0.487,0.197l-1.139,0c-0.371,0 -0.724,0.074 -1.057,0.221c-0.333,0.147 -0.619,0.344 -0.859,0.592c-0.24,0.248 -0.434,0.538 -0.581,0.871c-0.147,0.333 -0.221,0.686 -0.221,1.057l0,5.668c0,0.186 -0.065,0.345 -0.197,0.477c-0.132,0.131 -0.29,0.197 -0.476,0.197Z" style="fill:#fff;fill-rule:nonzero;"/><path d="M26.991,90.491l0.023,0.139c0,0.062 -0.007,0.101 -0.023,0.117c0,0.062 -0.008,0.1 -0.023,0.116l0,0.023c-0.031,0.031 -0.047,0.062 -0.047,0.093l-0.023,0.023c-0.015,0.016 -0.023,0.031 -0.023,0.047c0,0.015 -0.015,0.031 -0.046,0.046c-0.016,0.031 -0.031,0.05 -0.047,0.058c-0.015,0.008 -0.031,0.019 -0.046,0.035c0,0 -0.031,0.015 -0.093,0.046c0,0.016 -0.008,0.024 -0.024,0.024c-0.015,0 -0.031,0.007 -0.046,0.023l-7.828,2.973c0.154,0.387 0.352,0.713 0.592,0.976c0.24,0.263 0.488,0.48 0.743,0.65c0.256,0.171 0.492,0.299 0.709,0.384c0.217,0.085 0.379,0.143 0.488,0.174c0.325,0.108 0.689,0.163 1.091,0.163c0.202,0 0.442,-0.024 0.721,-0.07c0.278,-0.047 0.565,-0.136 0.859,-0.267c0.294,-0.132 0.589,-0.325 0.883,-0.581c0.294,-0.256 0.565,-0.592 0.813,-1.011c0.124,-0.232 0.325,-0.348 0.604,-0.348c0.139,0 0.248,0.031 0.325,0.093c0.17,0.093 0.279,0.228 0.325,0.406c0.047,0.179 0.023,0.353 -0.069,0.523c-0.481,0.836 -1.115,1.487 -1.905,1.951c-0.775,0.45 -1.619,0.674 -2.532,0.674c-0.511,0 -1.007,-0.07 -1.487,-0.209c-1.193,-0.325 -2.13,-0.952 -2.811,-1.882c-0.697,-0.944 -1.03,-2.028 -0.999,-3.252c0.031,-1.239 0.411,-2.307 1.138,-3.206c0.728,-0.882 1.688,-1.471 2.881,-1.765c0.217,-0.046 0.43,-0.085 0.639,-0.116c0.209,-0.031 0.422,-0.047 0.639,-0.047c0.975,0 1.862,0.248 2.659,0.744c0.798,0.495 1.429,1.184 1.894,2.067l0,0.047c0.015,0.015 0.023,0.031 0.023,0.046c0.015,0.016 0.023,0.047 0.023,0.093Zm-1.696,-0.186c-0.232,-0.31 -0.484,-0.557 -0.755,-0.743c-0.271,-0.186 -0.538,-0.329 -0.801,-0.43c-0.263,-0.101 -0.515,-0.166 -0.755,-0.197c-0.24,-0.031 -0.453,-0.047 -0.639,-0.047c-0.155,0 -0.31,0.008 -0.464,0.023c-0.155,0.016 -0.302,0.039 -0.442,0.07c-0.341,0.078 -0.685,0.209 -1.034,0.395c-0.348,0.186 -0.662,0.43 -0.94,0.732c-0.279,0.302 -0.511,0.662 -0.697,1.08c-0.186,0.418 -0.287,0.906 -0.302,1.463l0,0.256l6.829,-2.602Z" style="fill:#fff;fill-rule:nonzero;"/><path d="M29.291,97.971c-0.201,0 -0.368,-0.066 -0.5,-0.197c-0.131,-0.132 -0.197,-0.291 -0.197,-0.477l0,-14.751c0,-0.201 0.066,-0.367 0.197,-0.499c0.132,-0.132 0.299,-0.197 0.5,-0.197c0.186,0 0.344,0.065 0.476,0.197c0.132,0.132 0.198,0.298 0.198,0.499l0,9.525l2.206,0c0.527,0 1.026,-0.101 1.499,-0.302c0.472,-0.202 0.883,-0.476 1.231,-0.825c0.348,-0.348 0.623,-0.759 0.825,-1.231c0.201,-0.472 0.302,-0.972 0.302,-1.498c0,-0.186 0.069,-0.345 0.209,-0.477c0.139,-0.131 0.302,-0.197 0.488,-0.197c0.185,0 0.344,0.066 0.476,0.197c0.131,0.132 0.197,0.291 0.197,0.477c0,1.053 -0.286,2.005 -0.859,2.857c-0.449,0.712 -1.046,1.27 -1.789,1.672c0.759,0.434 1.355,0.999 1.789,1.696c0.294,0.418 0.511,0.871 0.65,1.359c0.139,0.488 0.209,0.987 0.209,1.498c0,0.186 -0.066,0.345 -0.197,0.477c-0.132,0.131 -0.291,0.197 -0.476,0.197c-0.186,0 -0.349,-0.066 -0.488,-0.197c-0.14,-0.132 -0.209,-0.291 -0.209,-0.477c0,-0.526 -0.101,-1.026 -0.302,-1.498c-0.202,-0.472 -0.477,-0.883 -0.825,-1.231c-0.348,-0.349 -0.759,-0.623 -1.231,-0.825c-0.473,-0.201 -0.972,-0.302 -1.499,-0.302l-2.206,0l0,3.856c0,0.186 -0.066,0.345 -0.198,0.477c-0.132,0.131 -0.29,0.197 -0.476,0.197Z" style="fill:#fff;fill-rule:nonzero;"/><path d="M46.272,97.344c-0.372,0.201 -0.763,0.356 -1.173,0.465c-0.41,0.108 -0.832,0.162 -1.266,0.162c-0.728,0 -1.406,-0.135 -2.033,-0.406c-0.627,-0.271 -1.181,-0.647 -1.661,-1.127c-0.48,-0.48 -0.855,-1.034 -1.126,-1.661c-0.271,-0.627 -0.407,-1.305 -0.407,-2.033c0,-0.712 0.136,-1.386 0.407,-2.021c0.271,-0.635 0.646,-1.192 1.126,-1.672c0.48,-0.48 1.034,-0.856 1.661,-1.127c0.627,-0.271 1.305,-0.406 2.033,-0.406c0.712,0 1.386,0.135 2.021,0.406c0.635,0.271 1.192,0.647 1.672,1.127c0.481,0.48 0.856,1.037 1.127,1.672c0.271,0.635 0.407,1.309 0.407,2.021l0,4.53c0,0.186 -0.066,0.349 -0.198,0.488c-0.131,0.139 -0.298,0.209 -0.499,0.209c-0.186,0 -0.345,-0.07 -0.476,-0.209c-0.132,-0.139 -0.198,-0.302 -0.198,-0.488l0,-1.022c-0.387,0.434 -0.859,0.798 -1.417,1.092Zm-6.295,-4.6c0,0.527 0.1,1.026 0.302,1.499c0.201,0.472 0.476,0.882 0.824,1.231c0.349,0.348 0.759,0.623 1.232,0.825c0.472,0.201 0.971,0.302 1.498,0.302c0.526,0 1.026,-0.101 1.498,-0.302c0.473,-0.202 0.883,-0.477 1.231,-0.825c0.349,-0.349 0.624,-0.759 0.825,-1.231c0.201,-0.473 0.302,-0.972 0.302,-1.499c0,-0.526 -0.101,-1.026 -0.302,-1.498c-0.201,-0.472 -0.476,-0.883 -0.825,-1.231c-0.348,-0.349 -0.758,-0.623 -1.231,-0.825c-0.472,-0.201 -0.972,-0.302 -1.498,-0.302c-0.527,0 -1.026,0.101 -1.498,0.302c-0.473,0.202 -0.883,0.476 -1.232,0.825c-0.348,0.348 -0.623,0.759 -0.824,1.231c-0.202,0.472 -0.302,0.972 -0.302,1.498Z" style="fill:#fff;fill-rule:nonzero;"/><path d="M55.378,87.518c0.867,0 1.688,0.209 2.463,0.627c0.542,0.294 1.006,0.658 1.393,1.092l0,-6.714c0,-0.186 0.066,-0.344 0.198,-0.476c0.131,-0.132 0.298,-0.197 0.499,-0.197c0.186,0 0.345,0.065 0.476,0.197c0.132,0.132 0.198,0.29 0.198,0.476l0,10.221c0,0.728 -0.136,1.406 -0.407,2.033c-0.271,0.627 -0.646,1.181 -1.126,1.661c-0.48,0.48 -1.038,0.856 -1.673,1.127c-0.635,0.271 -1.308,0.406 -2.021,0.406c-0.728,0 -1.405,-0.135 -2.032,-0.406c-0.628,-0.271 -1.181,-0.647 -1.661,-1.127c-0.48,-0.48 -0.856,-1.034 -1.127,-1.661c-0.271,-0.627 -0.407,-1.305 -0.407,-2.033c0,-0.712 0.136,-1.386 0.407,-2.021c0.271,-0.635 0.647,-1.192 1.127,-1.672c0.48,-0.48 1.033,-0.856 1.661,-1.127c0.627,-0.271 1.304,-0.406 2.032,-0.406Zm3.856,5.226c0,-0.526 -0.1,-1.026 -0.302,-1.498c-0.201,-0.472 -0.476,-0.883 -0.824,-1.231c-0.349,-0.349 -0.759,-0.623 -1.231,-0.825c-0.473,-0.201 -0.972,-0.302 -1.499,-0.302c-0.526,0 -1.026,0.101 -1.498,0.302c-0.472,0.202 -0.883,0.476 -1.231,0.825c-0.349,0.348 -0.624,0.759 -0.825,1.231c-0.201,0.472 -0.302,0.972 -0.302,1.498c0,0.542 0.101,1.046 0.302,1.51c0.201,0.465 0.476,0.871 0.825,1.22c0.348,0.348 0.759,0.623 1.231,0.825c0.472,0.201 0.972,0.302 1.498,0.302c0.527,0 1.026,-0.101 1.499,-0.302c0.472,-0.202 0.882,-0.477 1.231,-0.825c0.348,-0.349 0.623,-0.755 0.824,-1.22c0.202,-0.464 0.302,-0.968 0.302,-1.51Z" style="fill:#fff;fill-rule:nonzero;"/><path d="M71.755,90.491l0.024,0.139c0,0.062 -0.008,0.101 -0.024,0.117c0,0.062 -0.007,0.1 -0.023,0.116l0,0.023c-0.031,0.031 -0.046,0.062 -0.046,0.093l-0.024,0.023c-0.015,0.016 -0.023,0.031 -0.023,0.047c0,0.015 -0.015,0.031 -0.046,0.046c-0.016,0.031 -0.031,0.05 -0.047,0.058c-0.015,0.008 -0.031,0.019 -0.046,0.035c0,0 -0.031,0.015 -0.093,0.046c0,0.016 -0.008,0.024 -0.023,0.024c-0.016,0 -0.031,0.007 -0.047,0.023l-7.828,2.973c0.155,0.387 0.352,0.713 0.592,0.976c0.24,0.263 0.488,0.48 0.743,0.65c0.256,0.171 0.492,0.299 0.709,0.384c0.217,0.085 0.379,0.143 0.488,0.174c0.325,0.108 0.689,0.163 1.092,0.163c0.201,0 0.441,-0.024 0.72,-0.07c0.278,-0.047 0.565,-0.136 0.859,-0.267c0.294,-0.132 0.589,-0.325 0.883,-0.581c0.294,-0.256 0.565,-0.592 0.813,-1.011c0.124,-0.232 0.325,-0.348 0.604,-0.348c0.139,0 0.248,0.031 0.325,0.093c0.171,0.093 0.279,0.228 0.325,0.406c0.047,0.179 0.024,0.353 -0.069,0.523c-0.48,0.836 -1.115,1.487 -1.905,1.951c-0.774,0.45 -1.618,0.674 -2.532,0.674c-0.511,0 -1.007,-0.07 -1.487,-0.209c-1.192,-0.325 -2.129,-0.952 -2.811,-1.882c-0.697,-0.944 -1.03,-2.028 -0.999,-3.252c0.031,-1.239 0.411,-2.307 1.139,-3.206c0.728,-0.882 1.688,-1.471 2.88,-1.765c0.217,-0.046 0.43,-0.085 0.639,-0.116c0.209,-0.031 0.422,-0.047 0.639,-0.047c0.975,0 1.862,0.248 2.66,0.744c0.797,0.495 1.428,1.184 1.893,2.067l0,0.047c0.015,0.015 0.023,0.031 0.023,0.046c0.016,0.016 0.023,0.047 0.023,0.093Zm-1.695,-0.186c-0.233,-0.31 -0.484,-0.557 -0.755,-0.743c-0.271,-0.186 -0.539,-0.329 -0.802,-0.43c-0.263,-0.101 -0.515,-0.166 -0.755,-0.197c-0.24,-0.031 -0.453,-0.047 -0.639,-0.047c-0.155,0 -0.309,0.008 -0.464,0.023c-0.155,0.016 -0.302,0.039 -0.442,0.07c-0.34,0.078 -0.685,0.209 -1.033,0.395c-0.349,0.186 -0.662,0.43 -0.941,0.732c-0.279,0.302 -0.511,0.662 -0.697,1.08c-0.186,0.418 -0.287,0.906 -0.302,1.463l0,0.256l6.83,-2.602Z" style="fill:#fff;fill-rule:nonzero;"/></g><g id="text953-7-9-5-6"><path d="M12.13,116.382c-0.186,0 -0.348,-0.066 -0.488,-0.197c-0.139,-0.132 -0.209,-0.291 -0.209,-0.477l0,-5.668c0,-0.557 0.109,-1.084 0.326,-1.579c0.216,-0.496 0.511,-0.93 0.882,-1.301c0.372,-0.372 0.806,-0.666 1.301,-0.883c0.496,-0.217 1.022,-0.325 1.58,-0.325c0.697,0 1.343,0.162 1.94,0.488c0.596,0.325 1.088,0.774 1.475,1.347c0.371,-0.573 0.855,-1.022 1.452,-1.347c0.596,-0.326 1.242,-0.488 1.939,-0.488c0.558,0 1.084,0.108 1.58,0.325c0.495,0.217 0.929,0.511 1.301,0.883c0.371,0.371 0.666,0.805 0.883,1.301c0.216,0.495 0.325,1.022 0.325,1.579l0,5.668c0,0.186 -0.066,0.345 -0.198,0.477c-0.131,0.131 -0.29,0.197 -0.476,0.197c-0.186,0 -0.348,-0.066 -0.488,-0.197c-0.139,-0.132 -0.209,-0.291 -0.209,-0.477l0,-5.668c0,-0.372 -0.07,-0.724 -0.209,-1.057c-0.139,-0.333 -0.333,-0.623 -0.581,-0.871c-0.247,-0.248 -0.538,-0.441 -0.871,-0.581c-0.333,-0.139 -0.685,-0.209 -1.057,-0.209c-0.371,0 -0.724,0.07 -1.057,0.209c-0.333,0.14 -0.619,0.333 -0.859,0.581c-0.24,0.248 -0.434,0.538 -0.581,0.871c-0.147,0.333 -0.221,0.685 -0.221,1.057l0,5.668c0,0.186 -0.065,0.345 -0.197,0.477c-0.132,0.131 -0.29,0.197 -0.476,0.197c-0.186,0 -0.349,-0.066 -0.488,-0.197c-0.14,-0.132 -0.209,-0.291 -0.209,-0.477l0,-5.668c0,-0.372 -0.07,-0.724 -0.209,-1.057c-0.14,-0.333 -0.333,-0.623 -0.581,-0.871c-0.248,-0.248 -0.538,-0.441 -0.871,-0.581c-0.333,-0.139 -0.685,-0.209 -1.057,-0.209c-0.372,0 -0.724,0.07 -1.057,0.209c-0.333,0.14 -0.62,0.333 -0.86,0.581c-0.24,0.248 -0.433,0.538 -0.58,0.871c-0.147,0.333 -0.221,0.685 -0.221,1.057l0,5.668c0,0.186 -0.066,0.345 -0.197,0.477c-0.132,0.131 -0.291,0.197 -0.477,0.197Z" style="fill:#fff;fill-rule:nonzero;"/><path d="M37.567,108.902l0.023,0.139c0,0.062 -0.007,0.101 -0.023,0.116c0,0.062 -0.008,0.101 -0.023,0.117l0,0.023c-0.031,0.031 -0.047,0.062 -0.047,0.093l-0.023,0.023c-0.015,0.015 -0.023,0.031 -0.023,0.046c0,0.016 -0.016,0.031 -0.046,0.047c-0.016,0.031 -0.031,0.05 -0.047,0.058c-0.015,0.008 -0.031,0.019 -0.046,0.035c0,0 -0.031,0.015 -0.093,0.046c0,0.016 -0.008,0.023 -0.024,0.023c-0.015,0 -0.031,0.008 -0.046,0.024l-7.829,2.973c0.155,0.387 0.353,0.713 0.593,0.976c0.24,0.263 0.488,0.48 0.743,0.65c0.256,0.171 0.492,0.298 0.709,0.384c0.217,0.085 0.379,0.143 0.488,0.174c0.325,0.108 0.689,0.162 1.091,0.162c0.202,0 0.442,-0.023 0.72,-0.069c0.279,-0.047 0.566,-0.136 0.86,-0.267c0.294,-0.132 0.588,-0.326 0.883,-0.581c0.294,-0.256 0.565,-0.593 0.813,-1.011c0.124,-0.232 0.325,-0.348 0.604,-0.348c0.139,0 0.248,0.031 0.325,0.093c0.17,0.093 0.279,0.228 0.325,0.406c0.047,0.178 0.023,0.353 -0.069,0.523c-0.481,0.836 -1.116,1.487 -1.905,1.951c-0.775,0.449 -1.619,0.674 -2.532,0.674c-0.511,0 -1.007,-0.07 -1.487,-0.209c-1.193,-0.325 -2.13,-0.953 -2.811,-1.882c-0.697,-0.944 -1.03,-2.028 -0.999,-3.252c0.031,-1.239 0.411,-2.307 1.138,-3.206c0.728,-0.882 1.688,-1.471 2.881,-1.765c0.217,-0.047 0.43,-0.085 0.639,-0.116c0.209,-0.031 0.422,-0.047 0.639,-0.047c0.975,0 1.862,0.248 2.659,0.744c0.798,0.495 1.429,1.184 1.894,2.067l0,0.047c0.015,0.015 0.023,0.03 0.023,0.046c0.015,0.015 0.023,0.046 0.023,0.093Zm-1.696,-0.186c-0.232,-0.31 -0.484,-0.557 -0.755,-0.743c-0.271,-0.186 -0.538,-0.329 -0.801,-0.43c-0.263,-0.101 -0.515,-0.167 -0.755,-0.198c-0.24,-0.03 -0.453,-0.046 -0.639,-0.046c-0.155,0 -0.31,0.008 -0.464,0.023c-0.155,0.016 -0.302,0.039 -0.442,0.07c-0.341,0.077 -0.685,0.209 -1.034,0.395c-0.348,0.186 -0.662,0.43 -0.94,0.732c-0.279,0.302 -0.511,0.662 -0.697,1.08c-0.186,0.418 -0.287,0.906 -0.302,1.463l0,0.256l6.829,-2.602Z" style="fill:#fff;fill-rule:nonzero;"/><path d="M44.072,105.928c0.867,0 1.688,0.21 2.462,0.628c0.542,0.294 1.007,0.658 1.394,1.091l0,-6.713c0,-0.186 0.066,-0.345 0.197,-0.476c0.132,-0.132 0.298,-0.198 0.5,-0.198c0.185,0 0.344,0.066 0.476,0.198c0.131,0.131 0.197,0.29 0.197,0.476l0,10.221c0,0.728 -0.135,1.406 -0.406,2.033c-0.271,0.627 -0.647,1.181 -1.127,1.661c-0.48,0.48 -1.038,0.855 -1.672,1.126c-0.635,0.271 -1.309,0.407 -2.021,0.407c-0.728,0 -1.406,-0.136 -2.033,-0.407c-0.627,-0.271 -1.181,-0.646 -1.661,-1.126c-0.48,-0.48 -0.856,-1.034 -1.127,-1.661c-0.271,-0.627 -0.406,-1.305 -0.406,-2.033c0,-0.712 0.135,-1.386 0.406,-2.021c0.271,-0.635 0.647,-1.192 1.127,-1.672c0.48,-0.48 1.034,-0.856 1.661,-1.127c0.627,-0.271 1.305,-0.407 2.033,-0.407Zm3.856,5.227c0,-0.526 -0.101,-1.026 -0.302,-1.498c-0.202,-0.472 -0.477,-0.883 -0.825,-1.231c-0.348,-0.349 -0.759,-0.624 -1.231,-0.825c-0.472,-0.201 -0.972,-0.302 -1.498,-0.302c-0.527,0 -1.026,0.101 -1.499,0.302c-0.472,0.201 -0.883,0.476 -1.231,0.825c-0.348,0.348 -0.623,0.759 -0.825,1.231c-0.201,0.472 -0.302,0.972 -0.302,1.498c0,0.542 0.101,1.046 0.302,1.51c0.202,0.465 0.477,0.871 0.825,1.22c0.348,0.348 0.759,0.623 1.231,0.824c0.473,0.202 0.972,0.302 1.499,0.302c0.526,0 1.026,-0.1 1.498,-0.302c0.472,-0.201 0.883,-0.476 1.231,-0.824c0.348,-0.349 0.623,-0.755 0.825,-1.22c0.201,-0.464 0.302,-0.968 0.302,-1.51Z" style="fill:#fff;fill-rule:nonzero;"/><path d="M51.505,105.022c-0.186,0 -0.344,-0.065 -0.476,-0.197c-0.132,-0.132 -0.198,-0.29 -0.198,-0.476l0,-0.256c0,-0.186 0.066,-0.348 0.198,-0.488c0.132,-0.139 0.29,-0.209 0.476,-0.209c0.186,0 0.349,0.07 0.488,0.209c0.139,0.14 0.209,0.302 0.209,0.488l0,0.256c0,0.186 -0.07,0.344 -0.209,0.476c-0.139,0.132 -0.302,0.197 -0.488,0.197Zm0,11.36c-0.186,0 -0.344,-0.066 -0.476,-0.197c-0.132,-0.132 -0.198,-0.299 -0.198,-0.5l0,-9.06c0,-0.201 0.066,-0.367 0.198,-0.499c0.132,-0.132 0.29,-0.198 0.476,-0.198c0.186,0 0.349,0.066 0.488,0.198c0.139,0.132 0.209,0.298 0.209,0.499l0,9.06c0,0.201 -0.07,0.368 -0.209,0.5c-0.139,0.131 -0.302,0.197 -0.488,0.197Z" style="fill:#fff;fill-rule:nonzero;"/><path d="M61.215,115.755c-0.371,0.201 -0.762,0.356 -1.173,0.464c-0.41,0.109 -0.832,0.163 -1.266,0.163c-0.728,0 -1.405,-0.136 -2.033,-0.407c-0.627,-0.271 -1.18,-0.646 -1.66,-1.126c-0.481,-0.48 -0.856,-1.034 -1.127,-1.661c-0.271,-0.627 -0.407,-1.305 -0.407,-2.033c0,-0.712 0.136,-1.386 0.407,-2.021c0.271,-0.635 0.646,-1.192 1.127,-1.672c0.48,-0.48 1.033,-0.856 1.66,-1.127c0.628,-0.271 1.305,-0.407 2.033,-0.407c0.712,0 1.386,0.136 2.021,0.407c0.635,0.271 1.193,0.647 1.673,1.127c0.48,0.48 0.855,1.037 1.126,1.672c0.271,0.635 0.407,1.309 0.407,2.021l0,4.53c0,0.186 -0.066,0.349 -0.198,0.488c-0.131,0.139 -0.298,0.209 -0.499,0.209c-0.186,0 -0.345,-0.07 -0.476,-0.209c-0.132,-0.139 -0.198,-0.302 -0.198,-0.488l0,-1.022c-0.387,0.434 -0.859,0.798 -1.417,1.092Zm-6.295,-4.6c0,0.527 0.101,1.026 0.302,1.499c0.201,0.472 0.476,0.882 0.825,1.231c0.348,0.348 0.758,0.623 1.231,0.824c0.472,0.202 0.972,0.302 1.498,0.302c0.527,0 1.026,-0.1 1.498,-0.302c0.473,-0.201 0.883,-0.476 1.232,-0.824c0.348,-0.349 0.623,-0.759 0.824,-1.231c0.202,-0.473 0.302,-0.972 0.302,-1.499c0,-0.526 -0.1,-1.026 -0.302,-1.498c-0.201,-0.472 -0.476,-0.883 -0.824,-1.231c-0.349,-0.349 -0.759,-0.624 -1.232,-0.825c-0.472,-0.201 -0.971,-0.302 -1.498,-0.302c-0.526,0 -1.026,0.101 -1.498,0.302c-0.473,0.201 -0.883,0.476 -1.231,0.825c-0.349,0.348 -0.624,0.759 -0.825,1.231c-0.201,0.472 -0.302,0.972 -0.302,1.498Z" style="fill:#fff;fill-rule:nonzero;"/></g></g></svg>