<svg xmlns="http://www.w3.org/2000/svg" xmlns:xlink="http://www.w3.org/1999/xlink" width="100%" height="100%" viewBox="0 0 99 152" fill-rule="evenodd" stroke-linejoin="round" stroke-miterlimit="2"><g transform="matrix(1.44578 0 0 1.44578 -117.345 -403.081)" fill="#fff" fill-rule="nonzero"><path d="M83.964 280.182a1.41 1.41 0 0 0-1.416 1.416v61.796c0 .786.63 1.418 1.416 1.418h61.796c.785 0 1.416-.632 1.416-1.418v-61.796a1.41 1.41 0 0 0-1.416-1.416H83.964zm2.476 22.796h16.655a.61.61 0 0 1 .611.611v37.495a.61.61 0 0 1-.611.611H86.44a.61.61 0 0 1-.611-.611V303.6a.61.61 0 0 1 .611-.611zm40.2.247h16.655a.61.61 0 0 1 .611.61v37.25a.61.61 0 0 1-.611.611H126.63a.61.61 0 0 1-.611-.611v-37.25a.61.61 0 0 1 .611-.61zm-19.865 15.56h16.196a.59.59 0 0 1 .593.595v21.72a.59.59 0 0 1-.593.593h-16.196a.59.59 0 0 1-.593-.593v-21.72a.59.59 0 0 1 .593-.595zm-22.92 37.185v3.65c0 .418.066.858.176 1.276a4.48 4.48 0 0 0 .484 1.144c.154.286.396.572.704.836s.704.396 1.2.396c.198 0 .352.066.484.176a.71.71 0 0 1 .176.462.63.63 0 0 1-.176.462c-.132.132-.286.198-.484.198-.616 0-1.188-.176-1.738-.506-.484-.286-.88-.704-1.2-1.232a5.75 5.75 0 0 1-.682-1.54 6.27 6.27 0 0 1-.242-1.672v-9.678c0-.176.066-.33.198-.462a.71.71 0 0 1 .462-.176.71.71 0 0 1 .638.638v4.73h2.573c.198 0 .352.066.484.176a.78.78 0 0 1 .176.484c0 .176-.066.33-.176.44-.132.132-.286.198-.484.198h-2.573zm5.475 8.6c-.176 0-.33-.066-.462-.198a.54.54 0 0 1-.198-.44v-5.367a3.79 3.79 0 0 1 .308-1.496 3.94 3.94 0 0 1 2.068-2.068 3.79 3.79 0 0 1 1.496-.308H93.6a.71.71 0 0 1 .462.176c.132.132.198.286.198.462s-.066.33-.198.44c-.132.132-.286.198-.462.198h-1.078a2.57 2.57 0 0 0-1 .198c-.33.154-.594.33-.814.572-.242.242-.418.506-.55.814-.154.33-.22.66-.22 1.012v5.367c0 .176-.066.33-.176.44-.132.132-.286.198-.462.198z"/><use xlink:href="#B"/><path d="M106.94 364.57c-.198 0-.352-.066-.462-.198-.132-.1-.198-.264-.198-.44v-13.967c0-.198.066-.352.198-.484a.63.63 0 0 1 .462-.176.71.71 0 0 1 .462.176c.1.132.176.286.176.484v9.018h2.1c.506 0 .968-.088 1.43-.286.44-.198.836-.462 1.166-.792a3.59 3.59 0 0 0 .77-1.166c.198-.44.286-.902.286-1.408 0-.176.066-.33.198-.462a.71.71 0 0 1 .462-.176.71.71 0 0 1 .638.638c0 1-.264 1.892-.814 2.705-.418.682-1 1.2-1.694 1.584.726.418 1.276.946 1.694 1.606a4.03 4.03 0 0 1 .616 1.276c.132.462.198.946.198 1.43 0 .176-.066.33-.176.44-.132.132-.286.198-.462.198s-.33-.066-.462-.198c-.132-.1-.198-.264-.198-.44 0-.506-.088-.968-.286-1.43a4.13 4.13 0 0 0-.77-1.166c-.33-.33-.726-.572-1.166-.77-.462-.198-.924-.286-1.43-.286h-2.1v3.65c0 .176-.066.33-.176.44-.132.132-.286.198-.462.198z"/><use xlink:href="#C"/><use xlink:href="#D"/><use xlink:href="#B" x="42.384"/><path d="M91.503 382.403c-.176 0-.33-.066-.462-.198-.132-.1-.198-.264-.198-.44v-5.367a3.79 3.79 0 0 1 .308-1.496 3.94 3.94 0 0 1 2.068-2.068 3.79 3.79 0 0 1 1.496-.308c.66 0 1.276.154 1.848.462.55.308 1.012.726 1.386 1.276.352-.55.814-.968 1.386-1.276.55-.308 1.166-.462 1.826-.462a3.79 3.79 0 0 1 1.496.308 3.94 3.94 0 0 1 2.068 2.068 3.79 3.79 0 0 1 .308 1.496v5.367c0 .176-.066.33-.176.44-.132.132-.286.198-.462.198s-.33-.066-.462-.198c-.132-.1-.198-.264-.198-.44v-5.367c0-.352-.066-.682-.198-1.012-.132-.308-.308-.572-.55-.814s-.506-.418-.814-.55c-.33-.132-.66-.198-1.012-.198s-.682.066-1 .198c-.33.132-.594.308-.814.55-.242.242-.418.506-.55.814-.154.33-.22.66-.22 1.012v5.367c0 .176-.066.33-.176.44-.132.132-.286.198-.462.198s-.33-.066-.462-.198c-.132-.1-.198-.264-.198-.44v-5.367c0-.352-.066-.682-.198-1.012-.132-.308-.308-.572-.55-.814s-.506-.418-.814-.55c-.33-.132-.66-.198-1.012-.198s-.682.066-1 .198c-.33.132-.594.308-.814.55-.242.242-.418.506-.55.814-.154.33-.22.66-.22 1.012v5.367c0 .176-.066.33-.176.44-.132.132-.286.198-.462.198z"/><use xlink:href="#B" x="10.825" y="17.83"/><use xlink:href="#D" x="-9.894" y="17.832"/><path d="M128.784 371.647c-.176 0-.33-.066-.44-.198-.132-.1-.198-.264-.198-.44v-.242c0-.176.066-.33.198-.462.1-.132.264-.198.44-.198s.33.066.462.198.198.286.198.462V371c0 .176-.066.33-.198.44-.132.132-.286.198-.462.198zm0 10.756c-.176 0-.33-.066-.44-.198-.132-.1-.198-.264-.198-.462v-8.578c0-.198.066-.352.198-.484.1-.1.264-.176.44-.176a.71.71 0 0 1 .462.176c.132.132.198.286.198.484v8.578c0 .198-.066.352-.198.462-.132.132-.286.198-.462.198z"/><use xlink:href="#C" x="14.96" y="17.833"/></g><defs ><path id="B" d="M104.762 357.49l.022.132c0 .066 0 .088-.022.1 0 .066 0 .088-.022.1v.022c-.022.022-.044.066-.044.088l-.022.022c-.022.022-.022.022-.022.044s-.022.022-.044.044-.022.044-.044.044l-.044.044s-.022.022-.088.044c0 .022 0 .022-.022.022s-.022 0-.044.022l-7.412 2.815c.154.374.33.682.572.924.22.242.44.462.704.616.242.154.462.286.66.352.198.088.352.154.462.176.308.1.66.154 1.034.154.198 0 .418-.022.682-.066s.528-.132.814-.264c.286-.1.55-.308.836-.55s.528-.55.77-.946c.1-.22.308-.33.572-.33.132 0 .242.022.308.088a.64.64 0 0 1 .308.374c.044.176.022.352-.066.506-.462.792-1.056 1.408-1.804 1.848a4.77 4.77 0 0 1-2.397.638 5.06 5.06 0 0 1-1.408-.198c-1.122-.308-2.024-.902-2.66-1.782-.66-.902-.968-1.914-.946-3.08s.396-2.178 1.078-3.035c.682-.836 1.606-1.386 2.727-1.672l.616-.1.594-.044c.924 0 1.76.242 2.53.704.748.462 1.342 1.122 1.782 1.958v.044c.022.022.022.022.022.044.022.022.022.044.022.088zm-1.606-.176a3.55 3.55 0 0 0-.704-.704c-.264-.176-.528-.308-.77-.418-.242-.088-.484-.154-.704-.176l-.616-.044-.44.022-.418.066c-.33.066-.638.198-.968.374s-.638.396-.902.682-.484.638-.66 1.034-.264.858-.286 1.386v.242l6.467-2.463z"/><path id="C" d="M123.018 363.977c-.352.198-.726.33-1.1.44-.396.1-.792.154-1.2.154-.682 0-1.32-.132-1.914-.396a4.76 4.76 0 0 1-2.639-2.639c-.264-.594-.396-1.232-.396-1.914s.132-1.32.396-1.914a4.76 4.76 0 0 1 1.056-1.584c.462-.462 1-.814 1.584-1.078a5.03 5.03 0 0 1 1.914-.374 5.03 5.03 0 0 1 1.914.374c.594.264 1.122.616 1.584 1.078s.814 1 1.078 1.584a5.03 5.03 0 0 1 .374 1.914v4.29a.71.71 0 0 1-.176.462c-.132.132-.286.198-.484.198-.176 0-.33-.066-.44-.198-.132-.132-.198-.286-.198-.462v-.968c-.374.418-.814.748-1.342 1.034zm-5.96-4.355c0 .506.088.968.286 1.408.198.462.462.836.792 1.166.308.33.704.594 1.166.792.44.198.902.286 1.408.286s.968-.088 1.43-.286c.44-.198.814-.462 1.166-.792a3.59 3.59 0 0 0 .77-1.166c.198-.44.286-.902.286-1.408s-.088-.968-.286-1.43c-.198-.44-.44-.836-.77-1.166a4.13 4.13 0 0 0-1.166-.77c-.462-.198-.924-.286-1.43-.286s-.968.088-1.408.286c-.462.198-.858.44-1.166.77-.33.33-.594.726-.792 1.166-.198.462-.286.924-.286 1.43z"/><path id="D" d="M131.64 354.673c.814 0 1.606.198 2.33.594a5.09 5.09 0 0 1 1.32 1.034v-6.357c0-.176.066-.33.198-.462a.63.63 0 0 1 .462-.176.71.71 0 0 1 .638.638v9.678a5.03 5.03 0 0 1-.374 1.914c-.264.594-.616 1.122-1.078 1.584a4.76 4.76 0 0 1-1.584 1.056c-.594.264-1.232.396-1.914.396s-1.32-.132-1.914-.396c-.616-.242-1.122-.594-1.584-1.056a4.76 4.76 0 0 1-1.056-1.584c-.264-.594-.396-1.232-.396-1.914s.132-1.32.396-1.914a4.76 4.76 0 0 1 1.056-1.584c.462-.462.968-.814 1.584-1.078a5.03 5.03 0 0 1 1.914-.374zm3.65 4.95c0-.506-.088-.968-.286-1.43-.198-.44-.44-.836-.77-1.166s-.726-.572-1.166-.77c-.462-.198-.924-.286-1.43-.286s-.968.088-1.408.286a3.59 3.59 0 0 0-1.166.77c-.33.33-.594.726-.792 1.166-.198.462-.286.924-.286 1.43a3.46 3.46 0 0 0 .286 1.43 3.8 3.8 0 0 0 .792 1.144c.33.33.704.594 1.166.792.44.198.902.286 1.408.286s.968-.088 1.43-.286c.44-.198.836-.462 1.166-.792s.572-.704.77-1.144a3.46 3.46 0 0 0 .286-1.43z"/></defs></svg>