<?xml version="1.0" encoding="UTF-8" standalone="no"?><!DOCTYPE svg PUBLIC "-//W3C//DTD SVG 1.1//EN" "http://www.w3.org/Graphics/SVG/1.1/DTD/svg11.dtd"><svg width="100%" height="100%" viewBox="0 0 325 48" version="1.1" xmlns="http://www.w3.org/2000/svg" xmlns:xlink="http://www.w3.org/1999/xlink" xml:space="preserve" xmlns:serif="http://www.serif.com/" style="fill-rule:evenodd;clip-rule:evenodd;stroke-linecap:round;stroke-linejoin:round;"><g id="g1133"><g id="g1124"><path id="rect815-8-6-4" d="M45.735,2.805c0,-0.346 -0.28,-0.627 -0.626,-0.627l-42.304,0c-0.346,0 -0.627,0.281 -0.627,0.627l0,42.304c0,0.346 0.281,0.626 0.627,0.626l42.304,0c0.346,0 0.626,-0.28 0.626,-0.626l0,-42.304Z" style="fill:#fff;stroke:#fff;stroke-width:4.36px;"/><path id="rect853-5-1" d="M15.586,17.256c0,-0.253 -0.206,-0.458 -0.458,-0.458l-12.492,0c-0.253,0 -0.458,0.205 -0.458,0.458l0,28.122c0,0.253 0.205,0.458 0.458,0.458l12.492,0c0.252,0 0.458,-0.205 0.458,-0.458l0,-28.122Z"/><path id="rect853-3-7-3" d="M30.472,29.1c0,-0.246 -0.2,-0.445 -0.446,-0.445l-12.146,0c-0.246,0 -0.445,0.199 -0.445,0.445l0,16.291c0,0.246 0.199,0.445 0.445,0.445l12.146,0c0.246,0 0.446,-0.199 0.446,-0.445l0,-16.291Z"/><path id="rect853-2-0-3" d="M45.728,17.441c0,-0.253 -0.205,-0.458 -0.458,-0.458l-12.491,0c-0.253,0 -0.458,0.205 -0.458,0.458l0,27.937c0,0.253 0.205,0.458 0.458,0.458l12.491,0c0.253,0 0.458,-0.205 0.458,-0.458l0,-27.937Z"/></g><g id="text953-7-4"><path d="M60.289,21.928l0,7.653c0,0.891 0.123,1.782 0.369,2.673c0.246,0.892 0.584,1.691 1.014,2.398c0.338,0.614 0.83,1.198 1.475,1.751c0.645,0.553 1.491,0.83 2.535,0.83c0.4,0 0.73,0.131 0.992,0.392c0.261,0.261 0.391,0.576 0.391,0.945c0,0.399 -0.13,0.73 -0.391,0.991c-0.262,0.261 -0.592,0.392 -0.992,0.392c-1.29,0 -2.504,-0.354 -3.641,-1.06c-1.014,-0.615 -1.86,-1.476 -2.536,-2.582c-0.614,-0.953 -1.091,-2.021 -1.429,-3.204c-0.338,-1.183 -0.507,-2.358 -0.507,-3.526l0,-20.283c0,-0.369 0.139,-0.684 0.415,-0.945c0.277,-0.262 0.599,-0.392 0.968,-0.392c0.369,0 0.684,0.13 0.945,0.392c0.261,0.261 0.392,0.576 0.392,0.945l0,9.911l5.393,0c0.4,0 0.73,0.13 0.992,0.391c0.261,0.262 0.391,0.592 0.391,0.992c0,0.368 -0.13,0.683 -0.391,0.945c-0.262,0.261 -0.592,0.391 -0.992,0.391l-5.393,0Z" style="fill:#fff;fill-rule:nonzero;"/><path d="M71.767,39.953c-0.368,0 -0.691,-0.131 -0.968,-0.392c-0.276,-0.261 -0.414,-0.576 -0.414,-0.945l0,-11.248c0,-1.106 0.215,-2.151 0.645,-3.135c0.43,-0.983 1.014,-1.844 1.752,-2.581c0.737,-0.738 1.598,-1.322 2.581,-1.752c0.984,-0.43 2.028,-0.645 3.135,-0.645l2.259,0c0.368,0 0.691,0.13 0.968,0.392c0.276,0.261 0.415,0.576 0.415,0.945c0,0.368 -0.139,0.683 -0.415,0.945c-0.277,0.261 -0.6,0.391 -0.968,0.391l-2.259,0c-0.738,0 -1.437,0.146 -2.098,0.438c-0.66,0.292 -1.229,0.684 -1.705,1.176c-0.477,0.492 -0.861,1.068 -1.153,1.729c-0.292,0.66 -0.438,1.359 -0.438,2.097l0,11.248c0,0.369 -0.13,0.684 -0.392,0.945c-0.261,0.261 -0.576,0.392 -0.945,0.392Z" style="fill:#fff;fill-rule:nonzero;"/><path d="M104.128,25.109l0.047,0.277c0,0.123 -0.016,0.2 -0.047,0.23c0,0.123 -0.015,0.2 -0.046,0.231l0,0.046c-0.061,0.061 -0.092,0.123 -0.092,0.184l-0.046,0.046c-0.031,0.031 -0.046,0.062 -0.046,0.093c0,0.03 -0.031,0.061 -0.092,0.092c-0.031,0.061 -0.062,0.1 -0.092,0.115c-0.031,0.015 -0.062,0.038 -0.093,0.069c0,0 -0.061,0.031 -0.184,0.092c0,0.031 -0.015,0.046 -0.046,0.046c-0.031,0 -0.062,0.016 -0.092,0.047l-15.535,5.9c0.307,0.768 0.699,1.414 1.175,1.936c0.476,0.523 0.968,0.953 1.475,1.291c0.507,0.338 0.976,0.592 1.406,0.761c0.43,0.169 0.753,0.284 0.968,0.345c0.646,0.215 1.368,0.323 2.167,0.323c0.399,0 0.876,-0.046 1.429,-0.138c0.553,-0.092 1.122,-0.269 1.706,-0.53c0.583,-0.262 1.167,-0.646 1.751,-1.153c0.584,-0.507 1.122,-1.175 1.614,-2.005c0.246,-0.461 0.645,-0.692 1.198,-0.692c0.277,0 0.492,0.062 0.646,0.185c0.338,0.184 0.553,0.453 0.645,0.807c0.092,0.353 0.046,0.699 -0.138,1.037c-0.953,1.659 -2.213,2.95 -3.78,3.872c-1.537,0.891 -3.212,1.337 -5.025,1.337c-1.014,0 -1.998,-0.138 -2.95,-0.415c-2.367,-0.645 -4.226,-1.89 -5.578,-3.734c-1.383,-1.875 -2.044,-4.026 -1.982,-6.454c0.061,-2.458 0.814,-4.579 2.258,-6.361c1.445,-1.752 3.35,-2.92 5.717,-3.504c0.43,-0.092 0.852,-0.169 1.267,-0.23c0.415,-0.062 0.838,-0.092 1.268,-0.092c1.936,0 3.696,0.491 5.278,1.475c1.583,0.983 2.835,2.351 3.757,4.102l0,0.093c0.031,0.03 0.046,0.061 0.046,0.092c0.031,0.031 0.046,0.092 0.046,0.184Zm-3.365,-0.369c-0.461,-0.614 -0.96,-1.106 -1.498,-1.475c-0.538,-0.368 -1.068,-0.653 -1.59,-0.853c-0.523,-0.199 -1.022,-0.33 -1.499,-0.391c-0.476,-0.062 -0.898,-0.093 -1.267,-0.093c-0.308,0 -0.615,0.016 -0.922,0.047c-0.308,0.03 -0.599,0.076 -0.876,0.138c-0.676,0.154 -1.36,0.415 -2.051,0.784c-0.692,0.368 -1.314,0.852 -1.867,1.452c-0.554,0.599 -1.015,1.313 -1.383,2.143c-0.369,0.83 -0.569,1.798 -0.6,2.904l0,0.507l13.553,-5.163Z" style="fill:#fff;fill-rule:nonzero;"/><path d="M108.692,39.953c-0.399,0 -0.73,-0.131 -0.991,-0.392c-0.261,-0.261 -0.392,-0.576 -0.392,-0.945l0,-29.272c0,-0.4 0.131,-0.73 0.392,-0.991c0.261,-0.262 0.592,-0.392 0.991,-0.392c0.369,0 0.684,0.13 0.945,0.392c0.261,0.261 0.392,0.591 0.392,0.991l0,18.9l4.379,0c1.045,0 2.036,-0.2 2.974,-0.599c0.937,-0.4 1.751,-0.945 2.443,-1.637c0.691,-0.691 1.237,-1.506 1.636,-2.443c0.4,-0.937 0.6,-1.929 0.6,-2.973c0,-0.369 0.138,-0.684 0.415,-0.945c0.276,-0.262 0.599,-0.392 0.968,-0.392c0.368,0 0.683,0.13 0.945,0.392c0.261,0.261 0.391,0.576 0.391,0.945c0,2.089 -0.568,3.979 -1.705,5.67c-0.891,1.413 -2.075,2.52 -3.55,3.319c1.506,0.86 2.689,1.982 3.55,3.365c0.584,0.83 1.014,1.729 1.291,2.697c0.276,0.968 0.414,1.959 0.414,2.973c0,0.369 -0.13,0.684 -0.391,0.945c-0.262,0.261 -0.577,0.392 -0.945,0.392c-0.369,0 -0.692,-0.131 -0.968,-0.392c-0.277,-0.261 -0.415,-0.576 -0.415,-0.945c0,-1.045 -0.2,-2.036 -0.6,-2.973c-0.399,-0.938 -0.945,-1.752 -1.636,-2.444c-0.692,-0.691 -1.506,-1.237 -2.443,-1.636c-0.938,-0.4 -1.929,-0.599 -2.974,-0.599l-4.379,0l0,7.652c0,0.369 -0.131,0.684 -0.392,0.945c-0.261,0.261 -0.576,0.392 -0.945,0.392Z" style="fill:#fff;fill-rule:nonzero;"/><path d="M142.39,38.708c-0.738,0.4 -1.514,0.707 -2.328,0.922c-0.814,0.215 -1.652,0.323 -2.512,0.323c-1.445,0 -2.789,-0.269 -4.034,-0.807c-1.245,-0.538 -2.343,-1.283 -3.296,-2.236c-0.953,-0.952 -1.698,-2.051 -2.236,-3.296c-0.538,-1.244 -0.806,-2.589 -0.806,-4.033c0,-1.414 0.268,-2.751 0.806,-4.011c0.538,-1.26 1.283,-2.366 2.236,-3.319c0.953,-0.953 2.051,-1.698 3.296,-2.236c1.245,-0.537 2.589,-0.806 4.034,-0.806c1.413,0 2.75,0.269 4.01,0.806c1.26,0.538 2.367,1.283 3.319,2.236c0.953,0.953 1.698,2.059 2.236,3.319c0.538,1.26 0.807,2.597 0.807,4.011l0,8.989c0,0.369 -0.131,0.691 -0.392,0.968c-0.261,0.277 -0.592,0.415 -0.991,0.415c-0.369,0 -0.684,-0.138 -0.945,-0.415c-0.261,-0.277 -0.392,-0.599 -0.392,-0.968l0,-2.028c-0.768,0.86 -1.706,1.582 -2.812,2.166Zm-12.493,-9.127c0,1.045 0.2,2.036 0.6,2.973c0.399,0.937 0.945,1.752 1.636,2.443c0.692,0.692 1.506,1.237 2.443,1.637c0.938,0.399 1.929,0.599 2.974,0.599c1.045,0 2.036,-0.2 2.973,-0.599c0.937,-0.4 1.752,-0.945 2.443,-1.637c0.692,-0.691 1.237,-1.506 1.637,-2.443c0.399,-0.937 0.599,-1.928 0.599,-2.973c0,-1.045 -0.2,-2.036 -0.599,-2.974c-0.4,-0.937 -0.945,-1.751 -1.637,-2.443c-0.691,-0.691 -1.506,-1.237 -2.443,-1.636c-0.937,-0.4 -1.928,-0.6 -2.973,-0.6c-1.045,0 -2.036,0.2 -2.974,0.6c-0.937,0.399 -1.751,0.945 -2.443,1.636c-0.691,0.692 -1.237,1.506 -1.636,2.443c-0.4,0.938 -0.6,1.929 -0.6,2.974Z" style="fill:#fff;fill-rule:nonzero;"/><path d="M160.46,19.209c1.721,0 3.35,0.415 4.887,1.244c1.075,0.584 1.997,1.306 2.766,2.167l0,-13.322c0,-0.369 0.13,-0.684 0.392,-0.945c0.261,-0.262 0.591,-0.392 0.991,-0.392c0.368,0 0.683,0.13 0.945,0.392c0.261,0.261 0.392,0.576 0.392,0.945l0,20.283c0,1.444 -0.269,2.789 -0.807,4.033c-0.538,1.245 -1.283,2.344 -2.236,3.296c-0.953,0.953 -2.059,1.698 -3.319,2.236c-1.26,0.538 -2.597,0.807 -4.011,0.807c-1.444,0 -2.789,-0.269 -4.033,-0.807c-1.245,-0.538 -2.343,-1.283 -3.296,-2.236c-0.953,-0.952 -1.698,-2.051 -2.236,-3.296c-0.538,-1.244 -0.807,-2.589 -0.807,-4.033c0,-1.414 0.269,-2.751 0.807,-4.011c0.538,-1.26 1.283,-2.366 2.236,-3.319c0.953,-0.953 2.051,-1.698 3.296,-2.236c1.244,-0.537 2.589,-0.806 4.033,-0.806Zm7.653,10.372c0,-1.045 -0.2,-2.036 -0.6,-2.974c-0.399,-0.937 -0.945,-1.751 -1.636,-2.443c-0.691,-0.691 -1.506,-1.237 -2.443,-1.636c-0.938,-0.4 -1.929,-0.6 -2.974,-0.6c-1.044,0 -2.036,0.2 -2.973,0.6c-0.937,0.399 -1.752,0.945 -2.443,1.636c-0.692,0.692 -1.237,1.506 -1.637,2.443c-0.399,0.938 -0.599,1.929 -0.599,2.974c0,1.075 0.2,2.074 0.599,2.996c0.4,0.922 0.945,1.729 1.637,2.42c0.691,0.692 1.506,1.237 2.443,1.637c0.937,0.399 1.929,0.599 2.973,0.599c1.045,0 2.036,-0.2 2.974,-0.599c0.937,-0.4 1.752,-0.945 2.443,-1.637c0.691,-0.691 1.237,-1.498 1.636,-2.42c0.4,-0.922 0.6,-1.921 0.6,-2.996Z" style="fill:#fff;fill-rule:nonzero;"/><path d="M192.96,25.109l0.046,0.277c0,0.123 -0.016,0.2 -0.046,0.23c0,0.123 -0.016,0.2 -0.046,0.231l0,0.046c-0.062,0.061 -0.093,0.123 -0.093,0.184l-0.046,0.046c-0.03,0.031 -0.046,0.062 -0.046,0.093c0,0.03 -0.031,0.061 -0.092,0.092c-0.031,0.061 -0.061,0.1 -0.092,0.115c-0.031,0.015 -0.062,0.038 -0.092,0.069c0,0 -0.062,0.031 -0.185,0.092c0,0.031 -0.015,0.046 -0.046,0.046c-0.031,0 -0.061,0.016 -0.092,0.047l-15.535,5.9c0.307,0.768 0.699,1.414 1.175,1.936c0.477,0.523 0.968,0.953 1.475,1.291c0.508,0.338 0.976,0.592 1.406,0.761c0.431,0.169 0.753,0.284 0.969,0.345c0.645,0.215 1.367,0.323 2.166,0.323c0.4,0 0.876,-0.046 1.429,-0.138c0.553,-0.092 1.122,-0.269 1.706,-0.53c0.584,-0.262 1.168,-0.646 1.752,-1.153c0.583,-0.507 1.121,-1.175 1.613,-2.005c0.246,-0.461 0.645,-0.692 1.199,-0.692c0.276,0 0.491,0.062 0.645,0.185c0.338,0.184 0.553,0.453 0.645,0.807c0.092,0.353 0.046,0.699 -0.138,1.037c-0.953,1.659 -2.213,2.95 -3.78,3.872c-1.537,0.891 -3.212,1.337 -5.025,1.337c-1.014,0 -1.997,-0.138 -2.95,-0.415c-2.366,-0.645 -4.226,-1.89 -5.578,-3.734c-1.383,-1.875 -2.044,-4.026 -1.982,-6.454c0.061,-2.458 0.814,-4.579 2.259,-6.361c1.444,-1.752 3.349,-2.92 5.716,-3.504c0.43,-0.092 0.853,-0.169 1.268,-0.23c0.414,-0.062 0.837,-0.092 1.267,-0.092c1.936,0 3.696,0.491 5.278,1.475c1.583,0.983 2.836,2.351 3.757,4.102l0,0.093c0.031,0.03 0.047,0.061 0.047,0.092c0.03,0.031 0.046,0.092 0.046,0.184Zm-3.365,-0.369c-0.461,-0.614 -0.961,-1.106 -1.499,-1.475c-0.537,-0.368 -1.068,-0.653 -1.59,-0.853c-0.523,-0.199 -1.022,-0.33 -1.498,-0.391c-0.477,-0.062 -0.899,-0.093 -1.268,-0.093c-0.307,0 -0.615,0.016 -0.922,0.047c-0.307,0.03 -0.599,0.076 -0.876,0.138c-0.676,0.154 -1.36,0.415 -2.051,0.784c-0.692,0.368 -1.314,0.852 -1.867,1.452c-0.553,0.599 -1.014,1.313 -1.383,2.143c-0.369,0.83 -0.569,1.798 -0.599,2.904l0,0.507l13.553,-5.163Z" style="fill:#fff;fill-rule:nonzero;"/><path d="M214.395,39.953c-0.368,0 -0.691,-0.131 -0.968,-0.392c-0.276,-0.261 -0.415,-0.576 -0.415,-0.945l0,-11.248c0,-1.106 0.216,-2.151 0.646,-3.135c0.43,-0.983 1.014,-1.844 1.752,-2.581c0.737,-0.738 1.598,-1.322 2.581,-1.752c0.983,-0.43 2.028,-0.645 3.135,-0.645c1.383,0 2.666,0.322 3.849,0.968c1.183,0.645 2.159,1.536 2.927,2.674c0.738,-1.138 1.698,-2.029 2.881,-2.674c1.183,-0.646 2.467,-0.968 3.849,-0.968c1.107,0 2.152,0.215 3.135,0.645c0.984,0.43 1.844,1.014 2.582,1.752c0.737,0.737 1.321,1.598 1.751,2.581c0.431,0.984 0.646,2.029 0.646,3.135l0,11.248c0,0.369 -0.131,0.684 -0.392,0.945c-0.261,0.261 -0.576,0.392 -0.945,0.392c-0.369,0 -0.692,-0.131 -0.968,-0.392c-0.277,-0.261 -0.415,-0.576 -0.415,-0.945l0,-11.248c0,-0.738 -0.138,-1.437 -0.415,-2.097c-0.277,-0.661 -0.661,-1.237 -1.152,-1.729c-0.492,-0.492 -1.068,-0.876 -1.729,-1.153c-0.661,-0.276 -1.36,-0.414 -2.098,-0.414c-0.737,0 -1.436,0.138 -2.097,0.414c-0.661,0.277 -1.229,0.661 -1.706,1.153c-0.476,0.492 -0.86,1.068 -1.152,1.729c-0.292,0.66 -0.438,1.359 -0.438,2.097l0,11.248c0,0.369 -0.131,0.684 -0.392,0.945c-0.261,0.261 -0.576,0.392 -0.945,0.392c-0.369,0 -0.691,-0.131 -0.968,-0.392c-0.277,-0.261 -0.415,-0.576 -0.415,-0.945l0,-11.248c0,-0.738 -0.138,-1.437 -0.415,-2.097c-0.276,-0.661 -0.66,-1.237 -1.152,-1.729c-0.492,-0.492 -1.068,-0.876 -1.729,-1.153c-0.661,-0.276 -1.36,-0.414 -2.097,-0.414c-0.738,0 -1.437,0.138 -2.098,0.414c-0.661,0.277 -1.229,0.661 -1.705,1.153c-0.477,0.492 -0.861,1.068 -1.153,1.729c-0.292,0.66 -0.438,1.359 -0.438,2.097l0,11.248c0,0.369 -0.13,0.684 -0.392,0.945c-0.261,0.261 -0.576,0.392 -0.945,0.392Z" style="fill:#fff;fill-rule:nonzero;"/><path d="M264.873,25.109l0.046,0.277c0,0.123 -0.015,0.2 -0.046,0.23c0,0.123 -0.015,0.2 -0.046,0.231l0,0.046c-0.062,0.061 -0.092,0.123 -0.092,0.184l-0.046,0.046c-0.031,0.031 -0.047,0.062 -0.047,0.093c0,0.03 -0.03,0.061 -0.092,0.092c-0.031,0.061 -0.061,0.1 -0.092,0.115c-0.031,0.015 -0.061,0.038 -0.092,0.069c0,0 -0.062,0.031 -0.185,0.092c0,0.031 -0.015,0.046 -0.046,0.046c-0.03,0 -0.061,0.016 -0.092,0.047l-15.535,5.9c0.307,0.768 0.699,1.414 1.176,1.936c0.476,0.523 0.968,0.953 1.475,1.291c0.507,0.338 0.975,0.592 1.406,0.761c0.43,0.169 0.753,0.284 0.968,0.345c0.645,0.215 1.367,0.323 2.166,0.323c0.4,0 0.876,-0.046 1.429,-0.138c0.554,-0.092 1.122,-0.269 1.706,-0.53c0.584,-0.262 1.168,-0.646 1.752,-1.153c0.584,-0.507 1.121,-1.175 1.613,-2.005c0.246,-0.461 0.646,-0.692 1.199,-0.692c0.276,0 0.491,0.062 0.645,0.185c0.338,0.184 0.553,0.453 0.646,0.807c0.092,0.353 0.046,0.699 -0.139,1.037c-0.952,1.659 -2.212,2.95 -3.78,3.872c-1.536,0.891 -3.211,1.337 -5.025,1.337c-1.014,0 -1.997,-0.138 -2.95,-0.415c-2.366,-0.645 -4.226,-1.89 -5.578,-3.734c-1.383,-1.875 -2.043,-4.026 -1.982,-6.454c0.062,-2.458 0.814,-4.579 2.259,-6.361c1.444,-1.752 3.35,-2.92 5.716,-3.504c0.43,-0.092 0.853,-0.169 1.268,-0.23c0.415,-0.062 0.837,-0.092 1.267,-0.092c1.937,0 3.696,0.491 5.279,1.475c1.582,0.983 2.835,2.351 3.757,4.102l0,0.093c0.03,0.03 0.046,0.061 0.046,0.092c0.031,0.031 0.046,0.092 0.046,0.184Zm-3.365,-0.369c-0.461,-0.614 -0.961,-1.106 -1.498,-1.475c-0.538,-0.368 -1.068,-0.653 -1.591,-0.853c-0.522,-0.199 -1.022,-0.33 -1.498,-0.391c-0.476,-0.062 -0.899,-0.093 -1.268,-0.093c-0.307,0 -0.614,0.016 -0.922,0.047c-0.307,0.03 -0.599,0.076 -0.876,0.138c-0.676,0.154 -1.359,0.415 -2.051,0.784c-0.691,0.368 -1.314,0.852 -1.867,1.452c-0.553,0.599 -1.014,1.313 -1.383,2.143c-0.369,0.83 -0.568,1.798 -0.599,2.904l0,0.507l13.553,-5.163Z" style="fill:#fff;fill-rule:nonzero;"/><path d="M277.78,19.209c1.721,0 3.35,0.415 4.887,1.244c1.075,0.584 1.997,1.306 2.766,2.167l0,-13.322c0,-0.369 0.13,-0.684 0.392,-0.945c0.261,-0.262 0.591,-0.392 0.991,-0.392c0.368,0 0.683,0.13 0.945,0.392c0.261,0.261 0.392,0.576 0.392,0.945l0,20.283c0,1.444 -0.269,2.789 -0.807,4.033c-0.538,1.245 -1.283,2.344 -2.236,3.296c-0.953,0.953 -2.059,1.698 -3.319,2.236c-1.26,0.538 -2.597,0.807 -4.011,0.807c-1.444,0 -2.789,-0.269 -4.033,-0.807c-1.245,-0.538 -2.344,-1.283 -3.296,-2.236c-0.953,-0.952 -1.698,-2.051 -2.236,-3.296c-0.538,-1.244 -0.807,-2.589 -0.807,-4.033c0,-1.414 0.269,-2.751 0.807,-4.011c0.538,-1.26 1.283,-2.366 2.236,-3.319c0.952,-0.953 2.051,-1.698 3.296,-2.236c1.244,-0.537 2.589,-0.806 4.033,-0.806Zm7.653,10.372c0,-1.045 -0.2,-2.036 -0.6,-2.974c-0.399,-0.937 -0.945,-1.751 -1.636,-2.443c-0.692,-0.691 -1.506,-1.237 -2.443,-1.636c-0.938,-0.4 -1.929,-0.6 -2.974,-0.6c-1.044,0 -2.036,0.2 -2.973,0.6c-0.937,0.399 -1.752,0.945 -2.443,1.636c-0.692,0.692 -1.237,1.506 -1.637,2.443c-0.399,0.938 -0.599,1.929 -0.599,2.974c0,1.075 0.2,2.074 0.599,2.996c0.4,0.922 0.945,1.729 1.637,2.42c0.691,0.692 1.506,1.237 2.443,1.637c0.937,0.399 1.929,0.599 2.973,0.599c1.045,0 2.036,-0.2 2.974,-0.599c0.937,-0.4 1.751,-0.945 2.443,-1.637c0.691,-0.691 1.237,-1.498 1.636,-2.42c0.4,-0.922 0.6,-1.921 0.6,-2.996Z" style="fill:#fff;fill-rule:nonzero;"/><path d="M292.532,17.411c-0.369,0 -0.684,-0.131 -0.945,-0.392c-0.261,-0.261 -0.392,-0.576 -0.392,-0.945l0,-0.507c0,-0.369 0.131,-0.692 0.392,-0.968c0.261,-0.277 0.576,-0.415 0.945,-0.415c0.369,0 0.691,0.138 0.968,0.415c0.276,0.276 0.415,0.599 0.415,0.968l0,0.507c0,0.369 -0.139,0.684 -0.415,0.945c-0.277,0.261 -0.599,0.392 -0.968,0.392Zm0,22.542c-0.369,0 -0.684,-0.131 -0.945,-0.392c-0.261,-0.261 -0.392,-0.592 -0.392,-0.991l0,-17.978c0,-0.4 0.131,-0.73 0.392,-0.992c0.261,-0.261 0.576,-0.391 0.945,-0.391c0.369,0 0.691,0.13 0.968,0.391c0.276,0.262 0.415,0.592 0.415,0.992l0,17.978c0,0.399 -0.139,0.73 -0.415,0.991c-0.277,0.261 -0.599,0.392 -0.968,0.392Z" style="fill:#fff;fill-rule:nonzero;"/><path d="M311.801,38.708c-0.738,0.4 -1.514,0.707 -2.328,0.922c-0.814,0.215 -1.652,0.323 -2.512,0.323c-1.445,0 -2.789,-0.269 -4.034,-0.807c-1.245,-0.538 -2.343,-1.283 -3.296,-2.236c-0.953,-0.952 -1.698,-2.051 -2.236,-3.296c-0.538,-1.244 -0.807,-2.589 -0.807,-4.033c0,-1.414 0.269,-2.751 0.807,-4.011c0.538,-1.26 1.283,-2.366 2.236,-3.319c0.953,-0.953 2.051,-1.698 3.296,-2.236c1.245,-0.537 2.589,-0.806 4.034,-0.806c1.413,0 2.75,0.269 4.01,0.806c1.26,0.538 2.366,1.283 3.319,2.236c0.953,0.953 1.698,2.059 2.236,3.319c0.538,1.26 0.807,2.597 0.807,4.011l0,8.989c0,0.369 -0.131,0.691 -0.392,0.968c-0.261,0.277 -0.592,0.415 -0.991,0.415c-0.369,0 -0.684,-0.138 -0.945,-0.415c-0.262,-0.277 -0.392,-0.599 -0.392,-0.968l0,-2.028c-0.768,0.86 -1.706,1.582 -2.812,2.166Zm-12.493,-9.127c0,1.045 0.2,2.036 0.6,2.973c0.399,0.937 0.945,1.752 1.636,2.443c0.692,0.692 1.506,1.237 2.443,1.637c0.938,0.399 1.929,0.599 2.974,0.599c1.044,0 2.036,-0.2 2.973,-0.599c0.937,-0.4 1.752,-0.945 2.443,-1.637c0.692,-0.691 1.237,-1.506 1.637,-2.443c0.399,-0.937 0.599,-1.928 0.599,-2.973c0,-1.045 -0.2,-2.036 -0.599,-2.974c-0.4,-0.937 -0.945,-1.751 -1.637,-2.443c-0.691,-0.691 -1.506,-1.237 -2.443,-1.636c-0.937,-0.4 -1.929,-0.6 -2.973,-0.6c-1.045,0 -2.036,0.2 -2.974,0.6c-0.937,0.399 -1.751,0.945 -2.443,1.636c-0.691,0.692 -1.237,1.506 -1.636,2.443c-0.4,0.938 -0.6,1.929 -0.6,2.974Z" style="fill:#fff;fill-rule:nonzero;"/></g></g></svg>