<svg xmlns="http://www.w3.org/2000/svg" xmlns:xlink="http://www.w3.org/1999/xlink" width="100%" height="100%" viewBox="0 0 435 65" fill-rule="evenodd" stroke-linejoin="round" stroke-miterlimit="2"><g fill="#fff" fill-rule="nonzero"><path d="M1.417 0A1.41 1.41 0 0 0 .001 1.416v61.796c0 .785.63 1.418 1.416 1.418h61.796c.785 0 1.416-.633 1.416-1.418V1.416A1.41 1.41 0 0 0 63.213 0H1.417zm2.476 22.796h16.655a.61.61 0 0 1 .611.611v37.495a.61.61 0 0 1-.611.611H3.893a.61.61 0 0 1-.611-.611V23.407a.61.61 0 0 1 .611-.611zm40.2.247h16.655a.61.61 0 0 1 .611.61v37.25a.61.61 0 0 1-.611.611H44.082a.61.61 0 0 1-.611-.611v-37.25a.61.61 0 0 1 .611-.61zm-19.865 15.56h16.196a.59.59 0 0 1 .593.595v21.72a.59.59 0 0 1-.593.593H24.217a.59.59 0 0 1-.593-.593V39.2a.59.59 0 0 1 .593-.595zm57.134-8.967V39.84c0 1.168.184 2.397.492 3.565a12.51 12.51 0 0 0 1.352 3.196c.43.8 1.106 1.598 1.967 2.336s1.967 1.106 3.38 1.106a2.02 2.02 0 0 1 1.352.492c.307.37.492.8.492 1.3 0 .553-.184.983-.492 1.3-.37.37-.8.553-1.352.553-1.72 0-3.32-.492-4.856-1.414-1.352-.8-2.46-1.967-3.38-3.442-.8-1.3-1.475-2.704-1.905-4.303-.43-1.537-.676-3.135-.676-4.67V12.795c0-.492.184-.922.553-1.3.37-.307.8-.492 1.3-.492s.922.184 1.3.492c.307.37.492.8.492 1.3V26h7.2a2.02 2.02 0 0 1 1.352.492 2.03 2.03 0 0 1 .492 1.352c0 .492-.184.922-.492 1.23-.37.37-.8.553-1.352.553h-7.2zM96.657 53.67c-.492 0-.922-.184-1.3-.553-.37-.307-.553-.738-.553-1.23V36.9a10.59 10.59 0 0 1 .861-4.18 11.01 11.01 0 0 1 5.778-5.778 10.59 10.59 0 0 1 4.18-.861h3.012c.492 0 .922.184 1.3.492.37.37.553.8.553 1.3s-.184.922-.553 1.23c-.37.37-.8.553-1.3.553h-3.012c-.983 0-1.905.184-2.766.553-.922.43-1.66.922-2.274 1.598-.676.676-1.168 1.414-1.537 2.274-.43.922-.615 1.844-.615 2.827v14.997c0 .492-.184.922-.492 1.23-.37.37-.8.553-1.3.553z"/><use xlink:href="#B"/><path d="M145.89 53.67c-.553 0-.983-.184-1.29-.553-.37-.307-.553-.738-.553-1.23v-39.03c0-.553.184-.983.553-1.352.307-.307.738-.492 1.29-.492.492 0 .922.184 1.29.492.307.37.492.8.492 1.352v25.2h5.84c1.414 0 2.704-.246 3.995-.8 1.23-.553 2.336-1.29 3.258-2.213s1.598-1.967 2.15-3.258c.553-1.23.8-2.52.8-3.934 0-.492.184-.922.553-1.29.37-.307.8-.492 1.29-.492s.922.184 1.29.492c.307.37.492.8.492 1.29 0 2.766-.738 5.286-2.274 7.56-1.168 1.905-2.766 3.38-4.733 4.425 2.028 1.168 3.565 2.643 4.733 4.487.8 1.106 1.352 2.274 1.72 3.565a14.58 14.58 0 0 1 .553 3.995c0 .492-.184.922-.492 1.23-.37.37-.8.553-1.29.553s-.922-.184-1.29-.553c-.37-.307-.553-.738-.553-1.23 0-1.414-.246-2.704-.8-3.995-.553-1.23-1.23-2.274-2.15-3.258-.922-.922-2.028-1.598-3.258-2.15-1.29-.553-2.582-.8-3.995-.8h-5.84v10.203c0 .492-.184.922-.492 1.23-.37.37-.8.553-1.29.553z"/><use xlink:href="#C"/><use xlink:href="#D"/><use xlink:href="#B" x="118.442"/><path d="M286.827 53.67c-.492 0-.922-.184-1.29-.553-.37-.307-.553-.738-.553-1.23V36.89a10.59 10.59 0 0 1 .861-4.18 11.01 11.01 0 0 1 5.778-5.778 10.59 10.59 0 0 1 4.18-.861c1.844 0 3.565.43 5.163 1.29 1.537.86 2.827 2.028 3.872 3.565.983-1.537 2.274-2.704 3.872-3.565 1.537-.86 3.258-1.29 5.102-1.29a10.59 10.59 0 0 1 4.18.861 11.01 11.01 0 0 1 5.778 5.778 10.59 10.59 0 0 1 .861 4.18v14.997c0 .492-.184.922-.492 1.23-.37.37-.8.553-1.29.553s-.922-.184-1.29-.553c-.37-.307-.553-.738-.553-1.23V36.89c0-.983-.184-1.905-.553-2.827-.37-.86-.86-1.598-1.537-2.274s-1.414-1.168-2.274-1.537c-.922-.37-1.844-.553-2.827-.553s-1.905.184-2.766.553c-.922.37-1.66.86-2.274 1.537-.676.676-1.168 1.414-1.537 2.274-.43.922-.615 1.844-.615 2.827v14.997c0 .492-.184.922-.492 1.23-.37.37-.8.553-1.29.553s-.922-.184-1.29-.553c-.37-.307-.553-.738-.553-1.23V36.89c0-.983-.184-1.905-.553-2.827-.37-.86-.86-1.598-1.537-2.274s-1.414-1.168-2.274-1.537c-.922-.37-1.844-.553-2.827-.553s-1.905.184-2.766.553c-.922.37-1.66.86-2.274 1.537-.676.676-1.168 1.414-1.537 2.274-.43.922-.615 1.844-.615 2.827v14.997c0 .492-.184.922-.492 1.23-.37.37-.8.553-1.29.553z"/><use xlink:href="#B" x="214.326"/><use xlink:href="#D" x="156.426"/><path d="M391.01 23.613c-.492 0-.922-.184-1.23-.553-.37-.307-.553-.738-.553-1.23v-.676c0-.492.184-.922.553-1.29.307-.37.738-.553 1.23-.553s.922.184 1.29.553.553.8.553 1.29v.676c0 .492-.184.922-.553 1.23-.37.37-.8.553-1.29.553zm0 30.056c-.492 0-.922-.184-1.23-.553-.37-.307-.553-.738-.553-1.29v-23.97c0-.553.184-.983.553-1.352.307-.307.738-.492 1.23-.492s.922.184 1.29.492c.37.37.553.8.553 1.352v23.97c0 .553-.184.983-.553 1.29-.37.37-.8.553-1.29.553z"/><use xlink:href="#C" x="225.882"/></g><defs ><path id="B" d="M139.804 33.877l.06.37c0 .184 0 .246-.06.307 0 .184 0 .246-.06.307v.06c-.06.06-.123.184-.123.246l-.06.06c-.06.06-.06.06-.06.123s-.06.06-.123.123-.06.123-.123.123l-.123.123s-.06.06-.246.123c0 .06 0 .06-.06.06s-.06 0-.123.06l-20.713 7.867c.43 1.045.922 1.905 1.598 2.582.615.676 1.23 1.29 1.967 1.72.676.43 1.29.8 1.844.983.553.246.983.43 1.29.492.86.307 1.844.43 2.89.43.553 0 1.168-.06 1.905-.184s1.475-.37 2.274-.738c.8-.307 1.537-.86 2.336-1.537s1.475-1.537 2.15-2.643c.307-.615.86-.922 1.598-.922.37 0 .676.06.86.246.43.246.738.615.86 1.045.123.492.06.983-.184 1.414-1.29 2.213-2.95 3.934-5.04 5.163-2.028 1.168-4.303 1.782-6.7 1.782-1.352 0-2.643-.184-3.934-.553-3.135-.86-5.655-2.52-7.437-4.98-1.844-2.52-2.704-5.347-2.643-8.605s1.106-6.085 3.012-8.482c1.905-2.336 4.487-3.872 7.622-4.67l1.72-.307 1.66-.123c2.582 0 4.917.676 7.068 1.967 2.1 1.29 3.75 3.135 4.98 5.47v.123c.06.06.06.06.06.123.06.06.06.123.06.246zm-4.487-.492c-.615-.8-1.29-1.475-1.967-1.967-.738-.492-1.475-.86-2.15-1.168-.676-.246-1.352-.43-1.967-.492l-1.72-.123-1.23.06-1.168.184c-.922.184-1.782.553-2.704 1.045s-1.782 1.106-2.52 1.905-1.352 1.782-1.844 2.89-.738 2.397-.8 3.872v.676l18.07-6.884z"/><path id="C" d="M190.82 52.01c-.983.553-2.028.922-3.073 1.23-1.106.307-2.213.43-3.38.43-1.905 0-3.688-.37-5.347-1.106-1.66-.676-3.135-1.66-4.425-2.95s-2.274-2.766-2.95-4.425c-.738-1.66-1.106-3.442-1.106-5.347s.37-3.688 1.106-5.347c.676-1.66 1.66-3.135 2.95-4.425s2.766-2.274 4.425-3.012c1.66-.676 3.442-1.045 5.347-1.045s3.688.37 5.347 1.045c1.66.738 3.135 1.72 4.425 3.012s2.274 2.766 3.012 4.425c.676 1.66 1.045 3.442 1.045 5.347v11.986c0 .492-.184.922-.492 1.29-.37.37-.8.553-1.352.553-.492 0-.922-.184-1.23-.553-.37-.37-.553-.8-.553-1.29V49.12c-1.045 1.168-2.274 2.1-3.75 2.89zm-16.657-12.17c0 1.414.246 2.704.8 3.934.553 1.29 1.29 2.336 2.213 3.258.86.922 1.967 1.66 3.258 2.213 1.23.553 2.52.8 3.934.8s2.704-.246 3.995-.8c1.23-.553 2.274-1.29 3.258-2.213.922-.922 1.598-1.967 2.15-3.258.553-1.23.8-2.52.8-3.934s-.246-2.704-.8-3.995c-.553-1.23-1.23-2.336-2.15-3.258-.983-.922-2.028-1.598-3.258-2.15-1.29-.553-2.582-.8-3.995-.8s-2.704.246-3.934.8c-1.29.553-2.397 1.23-3.258 2.15-.922.922-1.66 2.028-2.213 3.258-.553 1.29-.8 2.582-.8 3.995z"/><path id="D" d="M214.914 26c2.274 0 4.487.553 6.515 1.66 1.414.8 2.643 1.72 3.688 2.89V12.795c0-.492.184-.922.553-1.29.307-.307.738-.492 1.29-.492.492 0 .922.184 1.29.492.307.37.492.8.492 1.29V39.84c0 1.905-.37 3.688-1.045 5.347-.738 1.66-1.72 3.135-3.012 4.425s-2.766 2.274-4.425 2.95c-1.66.738-3.442 1.106-5.347 1.106s-3.688-.37-5.347-1.106c-1.72-.676-3.135-1.66-4.425-2.95s-2.274-2.766-2.95-4.425c-.738-1.66-1.106-3.442-1.106-5.347s.37-3.688 1.106-5.347c.676-1.66 1.66-3.135 2.95-4.425s2.704-2.274 4.425-3.012c1.66-.676 3.442-1.045 5.347-1.045zm10.203 13.83c0-1.414-.246-2.704-.8-3.995-.553-1.23-1.23-2.336-2.15-3.258s-2.028-1.598-3.258-2.15c-1.29-.553-2.582-.8-3.995-.8s-2.704.246-3.934.8c-1.29.553-2.336 1.23-3.258 2.15s-1.66 2.028-2.213 3.258c-.553 1.29-.8 2.582-.8 3.995s.246 2.766.8 3.995 1.29 2.274 2.213 3.196 1.967 1.66 3.258 2.213c1.23.553 2.52.8 3.934.8s2.704-.246 3.995-.8c1.23-.553 2.336-1.29 3.258-2.213s1.598-1.967 2.15-3.196.8-2.582.8-3.995z"/></defs></svg>