<svg xmlns="http://www.w3.org/2000/svg" width="100%" height="100%" viewBox="0 0 94 148" fill-rule="nonzero" stroke-linejoin="round" stroke-miterlimit="2" fill="#fff"><path d="M2.05 0A2.04 2.04 0 0 0 .001 2.048V91.4c0 1.135.913 2.05 2.048 2.05h89.343c1.135 0 2.048-.915 2.048-2.05V2.048A2.04 2.04 0 0 0 91.392 0H2.05zm3.58 32.958H29.7a.88.88 0 0 1 .883.883v54.2a.88.88 0 0 1-.883.883H5.628a.88.88 0 0 1-.883-.883v-54.2a.88.88 0 0 1 .883-.883zm58.105.357h24.08a.88.88 0 0 1 .883.881V88.05a.88.88 0 0 1-.883.883h-24.08a.88.88 0 0 1-.883-.883V34.196a.88.88 0 0 1 .883-.881zm-28.72 22.498H58.43c.475 0 .857.385.857.86v31.403c0 .476-.382.858-.857.858H35.013c-.476 0-.858-.382-.858-.858V56.673c0-.476.382-.86.858-.86zm-33.14 53.76v5.28a6.89 6.89 0 0 0 .255 1.844 6.45 6.45 0 0 0 .699 1.654c.233.424.573.827 1.018 1.208s1.028.573 1.75.573a.85.85 0 0 1 .668.286c.2.17.286.38.286.636 0 .275-.096.5-.286.7-.17.17-.393.255-.668.255a4.67 4.67 0 0 1-2.512-.732c-.7-.424-1.283-1.017-1.75-1.78a8.28 8.28 0 0 1-.986-2.194 9 9 0 0 1-.35-2.449V100.86c0-.254.095-.466.286-.636.2-.2.414-.286.668-.286s.466.095.636.286a.81.81 0 0 1 .286.636v6.837h3.72a.85.85 0 0 1 .668.286c.2.17.286.392.286.668a.92.92 0 0 1-.286.668c-.17.17-.393.254-.668.254h-3.72zm7.896 12.434c-.254 0-.477-.085-.668-.255-.2-.2-.286-.413-.286-.668v-7.76a5.33 5.33 0 0 1 .445-2.162 5.71 5.71 0 0 1 1.21-1.78 5.77 5.77 0 0 1 1.78-1.208 5.34 5.34 0 0 1 2.163-.446h1.558c.254 0 .477.096.668.287a.81.81 0 0 1 .286.636.91.91 0 0 1-.286.667.97.97 0 0 1-.668.255h-1.558a3.49 3.49 0 0 0-1.463.318 3.74 3.74 0 0 0-1.177.795 4.43 4.43 0 0 0-.795 1.208c-.2.445-.286.922-.286 1.43v7.76c0 .255-.095.477-.286.668a.86.86 0 0 1-.636.255zm22.335-10.24v.095c.02.022.032.053.032.096 0 .085-.01.138-.032.16 0 .085-.01.138-.032.16v.032c-.042.042-.063.085-.063.127l-.032.032c-.02.02-.032.042-.032.063s-.02.043-.063.064a.37.37 0 0 1-.064.095c-.02 0-.042.01-.063.032l-.127.064c0 .02-.01.03-.032.03s-.043.01-.064.032l-10.716 4.07a4.55 4.55 0 0 0 .795 1.336c.34.36.678.657 1.017.9.36.234.7.414.986.54l.668.223c.445.148.943.222 1.495.222a6.18 6.18 0 0 0 .985-.095 5.27 5.27 0 0 0 1.177-.35 5.59 5.59 0 0 0 1.208-.795c.403-.36.774-.827 1.113-1.4.17-.318.445-.477.827-.477.2 0 .34.042.445.127.233.127.382.318.445.572.064.233.032.467-.095.7-.657 1.145-1.526 2.035-2.607 2.67-1.06.615-2.216.922-3.467.922a7.25 7.25 0 0 1-2.035-.286c-1.632-.445-2.915-1.304-3.848-2.576-.954-1.293-1.4-2.777-1.367-4.452.042-1.696.562-3.16 1.558-4.388.997-1.2 2.3-2.014 3.943-2.417l.86-.16a6.39 6.39 0 0 1 .9-.064c1.336 0 2.544.34 3.626 1.018 1.102.678 1.97 1.622 2.607 2.83v.064c.02.02.032.042.032.063.02.02.032.064.032.128zm-2.32-.254c-.318-.424-.668-.764-1.05-1.018a4.45 4.45 0 0 0-1.08-.572 4.09 4.09 0 0 0-1.049-.287 6.63 6.63 0 0 0-.859-.063 6.45 6.45 0 0 0-.636.032 4.99 4.99 0 0 0-.604.095 5.93 5.93 0 0 0-1.43.54 4.79 4.79 0 0 0-1.272 1.017c-.382.403-.7.9-.954 1.463s-.392 1.24-.414 2.004v.35l9.35-3.56zm5.483 10.494c-.276 0-.5-.085-.7-.255a.97.97 0 0 1-.255-.668v-20.193c0-.275.085-.498.255-.667a.95.95 0 0 1 .7-.287c.254 0 .466.096.636.287a.85.85 0 0 1 .286.667v13.038h3.02c.72 0 1.4-.137 2.035-.413a5.2 5.2 0 0 0 1.685-1.113c.488-.488.87-1.05 1.145-1.685a5.29 5.29 0 0 0 .414-2.067.81.81 0 0 1 .286-.636c.2-.2.413-.287.668-.287s.466.096.636.287c.2.17.286.38.286.636 0 1.44-.392 2.745-1.177 3.9-.615.975-1.43 1.738-2.448 2.3 1.038.593 1.855 1.367 2.448 2.32a6.11 6.11 0 0 1 .891 1.876c.2.657.286 1.336.286 2.035 0 .255-.096.477-.286.668-.17.17-.382.255-.636.255a.97.97 0 0 1-.668-.255c-.2-.2-.286-.413-.286-.668a5.06 5.06 0 0 0-.414-2.035 4.93 4.93 0 0 0-1.145-1.685 4.93 4.93 0 0 0-1.685-1.145c-.636-.276-1.314-.413-2.035-.413h-3.02v5.278c0 .255-.096.477-.286.668-.17.17-.382.255-.636.255zm23.23-.858a7.16 7.16 0 0 1-1.622.636 6.59 6.59 0 0 1-1.717.223 7.24 7.24 0 0 1-2.799-.541 7.57 7.57 0 0 1-2.258-1.558 7.43 7.43 0 0 1-1.558-2.258c-.36-.87-.54-1.802-.54-2.798 0-.976.18-1.898.54-2.767a7.59 7.59 0 0 1 1.558-2.3 7.09 7.09 0 0 1 2.258-1.526c.87-.382 1.802-.572 2.8-.572.975 0 1.897.2 2.766.572a6.99 6.99 0 0 1 2.29 1.526 7 7 0 0 1 1.526 2.29 6.8 6.8 0 0 1 .573 2.767v6.2c0 .254-.096.477-.287.667-.17.2-.392.287-.667.287-.255 0-.477-.096-.668-.287a.97.97 0 0 1-.255-.667v-1.4a6.85 6.85 0 0 1-1.94 1.495zm-8.618-6.296a5.3 5.3 0 0 0 .413 2.067c.276.636.647 1.198 1.113 1.685a5.67 5.67 0 0 0 1.686 1.113c.657.276 1.346.414 2.067.414a5.06 5.06 0 0 0 2.035-.414c.657-.275 1.22-.646 1.685-1.113a5.39 5.39 0 0 0 1.145-1.685c.276-.657.413-1.346.413-2.067a5.05 5.05 0 0 0-.413-2.035 4.95 4.95 0 0 0-1.145-1.686 4.96 4.96 0 0 0-1.685-1.145c-.636-.275-1.315-.413-2.035-.413a5.3 5.3 0 0 0-2.067.413 5.42 5.42 0 0 0-1.686 1.145c-.466.467-.837 1.028-1.113 1.686a5.07 5.07 0 0 0-.413 2.035zm21.078-7.156c1.187 0 2.3.286 3.37.858a7 7 0 0 1 1.908 1.495v-9.2c0-.255.085-.467.254-.636a.95.95 0 0 1 .7-.286c.254 0 .466.095.636.286a.81.81 0 0 1 .286.636v13.992c0 .996-.2 1.93-.572 2.798a7.1 7.1 0 0 1-1.527 2.258 7.42 7.42 0 0 1-2.289 1.558c-.87.36-1.792.54-2.767.54a7.22 7.22 0 0 1-2.798-.541c-.848-.38-1.6-.9-2.258-1.558s-1.177-1.4-1.558-2.258a7.22 7.22 0 0 1-.541-2.798 7.16 7.16 0 0 1 .54-2.767 7.42 7.42 0 0 1 1.558-2.289 7.08 7.08 0 0 1 2.258-1.527c.87-.38 1.802-.572 2.798-.572zm5.28 7.155c0-.72-.138-1.4-.414-2.035-.275-.658-.657-1.22-1.144-1.686a4.97 4.97 0 0 0-1.686-1.145 5.07 5.07 0 0 0-2.035-.413 5.3 5.3 0 0 0-2.067.413c-.636.276-1.198.658-1.685 1.145-.467.467-.838 1.028-1.113 1.686-.276.636-.414 1.314-.414 2.035a5.14 5.14 0 0 0 .414 2.067 5.66 5.66 0 0 0 1.113 1.685c.487.467 1.05.838 1.685 1.113.657.276 1.346.414 2.067.414a5.05 5.05 0 0 0 2.035-.414c.657-.275 1.22-.646 1.686-1.113a5.38 5.38 0 0 0 1.144-1.685c.274-.635.414-1.325.414-2.067zm17.17-3.085v.095c.02.022.032.053.032.096 0 .085-.01.138-.032.16 0 .085-.01.138-.032.16v.032c-.042.042-.063.085-.063.127l-.032.032c-.02.02-.032.042-.032.063s-.02.043-.063.064c-.022.042-.043.074-.064.095-.02 0-.042.01-.063.032l-.128.064c0 .02-.01.03-.03.03s-.043.01-.064.032l-10.717 4.07a4.55 4.55 0 0 0 .795 1.336 7.13 7.13 0 0 0 1.018.9c.36.234.7.414.986.54l.668.223c.445.148.943.222 1.494.222a6.19 6.19 0 0 0 .986-.095 5.27 5.27 0 0 0 1.177-.35c.402-.2.805-.456 1.208-.795.403-.36.774-.827 1.113-1.4.17-.318.445-.477.827-.477.2 0 .34.042.445.127.233.127.382.318.445.572.064.233.032.467-.095.7-.657 1.145-1.526 2.035-2.608 2.67-1.06.615-2.215.922-3.466.922a7.25 7.25 0 0 1-2.035-.286c-1.632-.445-2.915-1.304-3.848-2.576-.954-1.293-1.4-2.777-1.367-4.452.042-1.696.562-3.16 1.558-4.388.996-1.2 2.3-2.014 3.943-2.417l.86-.16c.297-.042.593-.064.9-.064 1.336 0 2.544.34 3.625 1.018 1.103.678 1.972 1.622 2.608 2.83v.064c.02.02.032.042.032.063.02.02.03.064.03.128zm-2.322-.254c-.318-.424-.667-.764-1.05-1.018a4.45 4.45 0 0 0-1.08-.572c-.36-.15-.7-.244-1.05-.287-.318-.042-.604-.063-.858-.063a6.45 6.45 0 0 0-.636.032 5.16 5.16 0 0 0-.604.095 5.93 5.93 0 0 0-1.43.54 4.79 4.79 0 0 0-1.272 1.017c-.382.403-.7.9-.954 1.463s-.393 1.24-.414 2.004v.35l9.35-3.56zM11.07 147.788c-.255 0-.477-.085-.668-.254-.2-.2-.286-.413-.286-.668v-7.76a5.33 5.33 0 0 1 .445-2.162 5.75 5.75 0 0 1 1.208-1.781c.5-.5 1.103-.912 1.78-1.2s1.4-.445 2.162-.445c.954 0 1.834.223 2.64.668.827.445 1.505 1.06 2.035 1.844.5-.784 1.166-1.4 1.972-1.844.826-.445 1.717-.668 2.67-.668.763 0 1.484.15 2.162.445a5.7 5.7 0 0 1 1.78 1.21 5.77 5.77 0 0 1 1.208 1.78 5.33 5.33 0 0 1 .446 2.162v7.76c0 .255-.096.477-.287.668a.86.86 0 0 1-.636.254.97.97 0 0 1-.667-.254c-.2-.2-.287-.413-.287-.668v-7.76a3.59 3.59 0 0 0-.286-1.431 3.64 3.64 0 0 0-.795-1.208 3.61 3.61 0 0 0-1.208-.795 3.59 3.59 0 0 0-1.431-.287 3.82 3.82 0 0 0-1.463.287 3.88 3.88 0 0 0-1.177.795 4.43 4.43 0 0 0-.795 1.208c-.2.445-.286.922-.286 1.43v7.76c0 .255-.095.477-.286.668a.86.86 0 0 1-.636.254c-.256 0-.477-.085-.668-.254-.2-.2-.286-.413-.286-.668v-7.76a3.59 3.59 0 0 0-.286-1.431 3.64 3.64 0 0 0-.795-1.208c-.34-.34-.742-.605-1.2-.795a3.59 3.59 0 0 0-1.431-.287 3.82 3.82 0 0 0-1.462.287c-.446.2-.838.455-1.177.795a4.43 4.43 0 0 0-.795 1.208 3.59 3.59 0 0 0-.286 1.431v7.76c0 .255-.096.477-.286.668-.17.17-.382.254-.636.254zm35.2-10.238v.095c.022.02.032.053.032.096 0 .085-.01.138-.032.16 0 .085-.01.138-.03.16v.032c-.043.042-.064.084-.064.127l-.032.032c-.02.02-.03.042-.03.063s-.02.042-.064.064a.37.37 0 0 1-.063.095c-.02 0-.043.01-.064.032l-.127.063c0 .02-.01.032-.032.032s-.042.01-.063.032L34.97 142.7c.212.53.477.975.795 1.336a6.38 6.38 0 0 0 1.018.89c.36.233.7.413.986.54l.667.222c.446.148.944.223 1.495.223a6.09 6.09 0 0 0 .986-.096 5.21 5.21 0 0 0 1.176-.35c.403-.2.806-.456 1.2-.795.403-.36.774-.827 1.113-1.4.17-.318.445-.477.827-.477.2 0 .34.042.445.127a.87.87 0 0 1 .445.573c.063.233.032.466-.096.7-.657 1.145-1.526 2.036-2.607 2.67-1.06.615-2.216.923-3.466.923a7.3 7.3 0 0 1-2.036-.286c-1.632-.446-2.915-1.304-3.847-2.576-.954-1.293-1.4-2.777-1.368-4.452.043-1.696.562-3.16 1.558-4.4.997-1.208 2.3-2.014 3.944-2.416l.858-.16a6.21 6.21 0 0 1 .891-.064c1.335 0 2.544.34 3.625 1.018 1.102.678 1.97 1.62 2.607 2.83v.063c.022.02.032.043.032.064.02.02.032.063.032.127zm-2.32-.255a4.3 4.3 0 0 0-1.05-1.017 4.43 4.43 0 0 0-1.082-.573c-.36-.148-.7-.243-1.05-.286a6.62 6.62 0 0 0-.859-.063l-.636.03a5.19 5.19 0 0 0-.604.096 5.96 5.96 0 0 0-1.43.54 4.83 4.83 0 0 0-1.272 1.018c-.38.403-.7.9-.954 1.463s-.392 1.24-.413 2.003v.35l9.35-3.562zm11.237-3.817a6.97 6.97 0 0 1 3.37.86c.742.403 1.378.9 1.908 1.494v-9.2c0-.254.084-.466.254-.636a.95.95 0 0 1 .7-.286c.254 0 .466.095.636.286a.82.82 0 0 1 .286.636v13.992a6.88 6.88 0 0 1-.573 2.799 7.09 7.09 0 0 1-1.526 2.257 7.37 7.37 0 0 1-2.3 1.56c-.87.36-1.8.54-2.766.54-.997 0-1.93-.18-2.8-.54-.848-.382-1.6-.9-2.257-1.56s-1.177-1.4-1.56-2.257c-.36-.87-.54-1.802-.54-2.8 0-.975.18-1.897.54-2.766a7.55 7.55 0 0 1 1.56-2.3c.66-.667 1.4-1.166 2.257-1.526a6.88 6.88 0 0 1 2.799-.573zm5.28 7.155c0-.72-.138-1.4-.414-2.035a4.93 4.93 0 0 0-1.145-1.685 4.93 4.93 0 0 0-1.685-1.145c-.636-.276-1.314-.414-2.035-.414a5.32 5.32 0 0 0-2.067.414c-.636.275-1.198.657-1.686 1.145a5.2 5.2 0 0 0-1.113 1.685 5.07 5.07 0 0 0-.413 2.035c0 .742.138 1.43.413 2.067a5.71 5.71 0 0 0 1.113 1.686 5.71 5.71 0 0 0 1.686 1.113 5.3 5.3 0 0 0 2.067.413 5.07 5.07 0 0 0 2.035-.413 5.2 5.2 0 0 0 1.685-1.113c.488-.488.87-1.05 1.145-1.686s.414-1.325.414-2.067zm5.26-8.395c-.254 0-.477-.085-.668-.254a.97.97 0 0 1-.254-.668v-.35c0-.254.085-.477.254-.668a.92.92 0 0 1 .668-.286c.255 0 .477.096.668.286s.286.414.286.668v.35c0 .254-.095.477-.286.668a.97.97 0 0 1-.668.254zm0 15.55c-.254 0-.477-.085-.668-.254-.17-.2-.254-.424-.254-.7v-12.402c0-.275.085-.498.254-.667.2-.2.414-.287.668-.287s.477.096.668.287c.2.17.286.392.286.667v12.402a.95.95 0 0 1-.286.7.97.97 0 0 1-.668.254zm13.622-.858c-.5.275-1.05.487-1.622.636a6.59 6.59 0 0 1-1.717.222c-.997 0-1.93-.18-2.8-.54-.848-.382-1.6-.9-2.257-1.56s-1.177-1.4-1.56-2.257c-.36-.87-.54-1.802-.54-2.8 0-.975.18-1.897.54-2.766a7.55 7.55 0 0 1 1.56-2.3c.66-.667 1.4-1.166 2.257-1.526a6.88 6.88 0 0 1 2.799-.573 6.78 6.78 0 0 1 2.766.573 6.99 6.99 0 0 1 2.29 1.526 6.98 6.98 0 0 1 1.526 2.29c.382.87.573 1.8.573 2.766v6.2c0 .255-.096.477-.287.668-.17.2-.392.286-.667.286-.255 0-.477-.095-.668-.286a.97.97 0 0 1-.254-.668v-1.4c-.53.594-1.177 1.092-1.94 1.495zm-8.618-6.297a5.3 5.3 0 0 0 .413 2.067 5.71 5.71 0 0 0 1.113 1.686 5.71 5.71 0 0 0 1.686 1.113 5.3 5.3 0 0 0 2.067.413 5.07 5.07 0 0 0 2.035-.413 5.2 5.2 0 0 0 1.685-1.113c.488-.488.87-1.05 1.145-1.686.276-.657.414-1.346.414-2.067a5.05 5.05 0 0 0-.414-2.035c-.276-.657-.657-1.22-1.145-1.685a4.93 4.93 0 0 0-1.685-1.145c-.636-.276-1.314-.414-2.035-.414a5.32 5.32 0 0 0-2.067.414c-.636.275-1.198.657-1.686 1.145a5.2 5.2 0 0 0-1.113 1.685 5.07 5.07 0 0 0-.413 2.035z"/></svg>